<svg width="56" height="56" viewBox="0 0 56 56" fill="none" xmlns="http://www.w3.org/2000/svg">
<path d="M38.0799 19.04C38.0799 21.7134 37.0179 24.2773 35.1276 26.1677C33.2372 28.058 30.6733 29.12 27.9999 29.12C25.3265 29.12 22.7627 28.058 20.8723 26.1677C18.9819 24.2773 17.9199 21.7134 17.9199 19.04C17.9199 16.3666 18.9819 13.8028 20.8723 11.9124C22.7627 10.022 25.3265 8.96002 27.9999 8.96002C30.6733 8.96002 33.2372 10.022 35.1276 11.9124C37.0179 13.8028 38.0799 16.3666 38.0799 19.04Z" fill="#285BA7"/>
<path d="M13.44 26.88C13.44 28.0682 12.968 29.2077 12.1278 30.0479C11.2877 30.888 10.1482 31.36 8.95998 31.36C7.77181 31.36 6.6323 30.888 5.79214 30.0479C4.95198 29.2077 4.47998 28.0682 4.47998 26.88C4.47998 25.6919 4.95198 24.5523 5.79214 23.7122C6.6323 22.872 7.77181 22.4 8.95998 22.4C10.1482 22.4 11.2877 22.872 12.1278 23.7122C12.968 24.5523 13.44 25.6919 13.44 26.88Z" fill="#FBB945"/>
<path d="M51.5201 26.88C51.5201 28.0682 51.0481 29.2077 50.2079 30.0479C49.3677 30.888 48.2282 31.36 47.0401 31.36C45.8519 31.36 44.7124 30.888 43.8722 30.0479C43.0321 29.2077 42.5601 28.0682 42.5601 26.88C42.5601 25.6919 43.0321 24.5523 43.8722 23.7122C44.7124 22.872 45.8519 22.4 47.0401 22.4C48.2282 22.4 49.3677 22.872 50.2079 23.7122C51.0481 24.5523 51.5201 25.6919 51.5201 26.88Z" fill="#1AD3BB"/>
<path d="M28 33.6H4.48C3.29183 33.6 2.15232 34.072 1.31216 34.9121C0.471999 35.7523 0 36.8918 0 38.08L0 42.56C0 43.7481 0.471999 44.8877 1.31216 45.7278C2.15232 46.568 3.29183 47.04 4.48 47.04H28V33.6Z" fill="#FBB945"/>
<path d="M51.52 33.6H28V47.04H51.52C52.7082 47.04 53.8477 46.568 54.6878 45.7278C55.528 44.8877 56 43.7481 56 42.56V38.08C56 36.8918 55.528 35.7523 54.6878 34.9121C53.8477 34.072 52.7082 33.6 51.52 33.6Z" fill="#1AD3BB"/>
<path d="M13.4399 33.6H29.1199C36.5422 33.6 42.5599 39.6177 42.5599 47.04H26.8799C19.4577 47.04 13.4399 41.0222 13.4399 33.6Z" fill="#285BA7"/>
</svg>
