<svg width="56" height="56" viewBox="0 0 56 56" fill="none" xmlns="http://www.w3.org/2000/svg">
<g clip-path="url(#clip0_52_2619)">
<path d="M34.8698 32.3075L42.8689 1.38096C43.15 0.334883 42.0737 -0.424477 41.2225 0.263203L9.35401 26.0187C8.64617 26.5899 8.94297 27.4445 9.83785 27.6842L32.0844 33.8598C33.3052 34.1858 34.5518 33.4902 34.8698 32.3075Z" fill="#04FFB8"/>
<path d="M21.1309 23.6914L13.1308 54.6179C12.8508 55.664 13.926 56.4234 14.7772 55.7357L46.6468 29.979C47.3535 29.4078 47.0578 28.5544 46.1618 28.3147L23.9164 22.139C22.6956 21.8131 21.449 22.5075 21.1309 23.6914Z" fill="#285BA7"/>
<path d="M36.5902 25.657L34.871 32.3064C34.5529 33.4902 33.3052 34.1846 32.0855 33.8587L19.4116 30.3408L21.1319 23.6914C21.45 22.5075 22.6966 21.8131 23.9163 22.139L36.5902 25.657Z" fill="#00BAFD"/>
</g>
<defs>
<clipPath id="clip0_52_2619">
<rect width="56" height="56" fill="white"/>
</clipPath>
</defs>
</svg>
