<svg width="57" height="54" viewBox="0 0 57 54" fill="none" xmlns="http://www.w3.org/2000/svg">
<g clip-path="url(#clip0_52_2465)">
<path d="M46.1655 21.1898C46.9466 30.0556 41.2842 40.8909 34.907 46.8029C33.3527 48.2436 31.3663 49.8512 29.6627 51.1222C24.6627 54.854 22.1318 54.9895 16.9878 51.332C11.1997 47.2164 4.10865 39.6234 1.58816 32.9264C-2.5923 21.8175 1.66845 8.58605 12.1257 2.78594C26.5671 -5.22319 44.7368 4.99321 46.1646 21.1889L46.1655 21.1898ZM15.1454 26.906C18.468 34.1118 29.2595 33.1904 31.1115 25.5606C32.795 18.6232 25.7022 13.1037 19.3137 15.9291C15.1768 17.7587 13.2838 22.8673 15.1463 26.906H15.1454Z" fill="#285BA7"/>
<path d="M34.9071 46.803C41.2843 40.891 46.9467 30.0556 46.1656 21.1898C51.1097 21.765 55.1749 25.7705 56.4867 30.477C58.4041 37.3584 54.6495 44.7731 50.1374 49.7769C47.6327 52.5541 44.6531 55.0219 40.8828 52.6625C38.55 51.2026 36.8045 48.7558 34.9062 46.8038L34.9071 46.803Z" fill="#FBB945"/>
</g>
<defs>
<clipPath id="clip0_52_2465">
<rect width="57" height="54" fill="white"/>
</clipPath>
</defs>
</svg>
