<svg width="54" height="58" viewBox="0 0 54 58" fill="none" xmlns="http://www.w3.org/2000/svg">
<g clip-path="url(#clip0_52_2469)">
<path d="M50.5318 19.1299C48.5771 20.0856 46.1823 19.9519 44.2993 18.5705L34.3636 11.2878C32.7027 10.0697 31.8195 8.16133 31.8195 6.22563C31.8195 5.76755 31.8693 5.30845 31.9688 4.85645C30.3597 4.54329 28.6988 4.38013 27 4.38013C25.3012 4.38013 23.6393 4.54431 22.0302 4.85645C22.1307 5.30845 22.1805 5.76856 22.1805 6.22664C22.1805 8.16234 21.2973 10.0697 19.6364 11.2878L9.70069 18.5705C7.81671 19.9519 5.42291 20.0856 3.46823 19.1299C1.67089 22.7551 0.658203 26.8525 0.658203 31.1901C0.658203 45.9966 12.452 58 27 58C41.548 58 53.3418 45.9966 53.3418 31.1901C53.3418 26.8525 52.3291 22.7551 50.5318 19.1299ZM29.8997 30.6904C29.8997 30.9782 29.8429 31.2529 29.7413 31.5032C30.054 32.2755 29.9026 33.1967 29.2863 33.824L22.7362 40.4915C22.3269 40.9071 21.7912 41.1158 21.2555 41.1158C20.7198 41.1158 20.183 40.9071 19.7738 40.4915C18.9563 39.6585 18.9563 38.3086 19.7738 37.4765L25.8091 31.334C25.7454 31.1313 25.7115 30.9144 25.7115 30.6904V21.2612C25.7115 20.6724 25.9455 20.1404 26.3249 19.7542C26.7033 19.3691 27.227 19.1299 27.8056 19.1299C28.9626 19.1299 29.8997 20.0846 29.8997 21.2612V30.6904Z" fill="#285BA7"/>
<path d="M22.1806 6.2267C22.1806 8.1624 21.2973 10.0697 19.6364 11.2879L9.70072 18.5706C7.81674 19.9519 5.42294 20.0857 3.46826 19.13C7.08884 11.826 13.8958 6.4375 22.0302 4.85651C22.1308 5.30851 22.1806 5.76862 22.1806 6.2267Z" fill="#00BAFD"/>
<path d="M22.0302 4.85636C13.8958 6.43735 7.08881 11.8259 3.46823 19.1299C2.57503 18.6951 1.77345 18.0323 1.15408 17.1567C0.374405 16.055 0 14.7811 0 13.5204C0 11.5847 0.883238 9.67635 2.54416 8.45818L12.4798 1.1755C15.2232 -0.836211 19.0499 -0.202802 21.0254 2.59028C21.5223 3.29159 21.8549 4.06283 22.0302 4.85636Z" fill="#04FFB8"/>
<path d="M50.5316 19.13C48.577 20.0857 46.1822 19.9519 44.2992 18.5706L34.3635 11.2879C32.7026 10.0697 31.8193 8.16138 31.8193 6.22568C31.8193 5.7676 31.8691 5.30851 31.9687 4.85651C40.1031 6.43648 46.9111 11.825 50.5316 19.13Z" fill="#00BAFD"/>
<path d="M53.9999 13.5195C53.9999 14.7812 53.6245 16.0552 52.8448 17.1568C52.2255 18.0324 51.4249 18.6952 50.5317 19.13C46.9111 11.825 40.1031 6.43646 31.9688 4.85648C32.145 4.06295 32.4766 3.29171 32.9735 2.5904C34.9501 -0.20268 38.7758 -0.836089 41.5201 1.17562L51.4558 8.4583C53.1167 9.67648 53.9999 11.5838 53.9999 13.5195Z" fill="#04FFB8"/>
</g>
<defs>
<clipPath id="clip0_52_2469">
<rect width="54" height="58" fill="white"/>
</clipPath>
</defs>
</svg>
