<svg width="51" height="66" viewBox="0 0 51 66" fill="none" xmlns="http://www.w3.org/2000/svg">
<g clip-path="url(#clip0_86_7)">
<path d="M50.9514 23.9241C49.709 5.97887 29.8889 -5.6981 13.8069 2.86601C2.1612 9.06621 -2.8044 23.6177 1.57701 35.9926C3.80158 42.2758 9.58631 49.3292 15.1192 54.1868C18.2327 53.7485 21.7611 53.5017 25.5012 53.5017C29.2413 53.5017 32.4945 53.7315 35.517 54.1379C36.3976 53.4315 37.2548 52.7123 38.0189 52.0272C45.1688 45.6185 51.633 33.7479 50.9514 23.9241ZM34.2682 28.4519C32.0712 36.8543 20.1588 37.6501 16.6431 29.6116C14.6725 25.105 16.8633 19.4921 21.4606 17.5537C28.5597 14.56 36.2663 20.8113 34.2682 28.4519Z" fill="#285BA7"/>
<path d="M35.517 54.1379C34.3889 55.0422 33.2184 55.9273 32.1495 56.6976C26.5637 60.7253 23.7698 60.8232 18.1755 56.6699C17.1828 55.9337 16.1563 55.0996 15.1191 54.1868C18.2327 53.7485 21.7611 53.5017 25.5012 53.5017C29.2412 53.5017 32.4945 53.7315 35.517 54.1379Z" fill="#00BAFD"/>
<path d="M48.2592 59.7509C48.2592 63.2021 38.0697 66 25.5012 66C12.9327 66 2.74121 63.2021 2.74121 59.7509C2.74121 57.3274 7.7703 55.2252 15.1192 54.1869C16.1564 55.0997 17.1829 55.9337 18.1756 56.6699C23.7698 60.8233 26.5638 60.7254 32.1496 56.6976C33.2184 55.9274 34.3889 55.0422 35.5171 54.1379C43.065 55.155 48.2592 57.287 48.2592 59.7509Z" fill="#04FFB8"/>
</g>
<defs>
<clipPath id="clip0_86_7">
<rect width="51" height="66" fill="white"/>
</clipPath>
</defs>
</svg>
