<svg width="50" height="58" viewBox="0 0 50 58" fill="none" xmlns="http://www.w3.org/2000/svg">
<g clip-path="url(#clip0_70_10)">
<path d="M0 55.278L1.81452 3.522C1.81452 1.578 3.40524 0 5.36492 0H44.6331C46.5948 0 48.1835 1.578 48.1835 3.522L49.998 54.876C49.998 56.822 46.5927 57.998 44.6331 57.998H5.36492C3.40323 57.998 0 56.636 0 55.276V55.278Z" fill="#285BA7"/>
<path d="M14.6856 22.3879C14.6856 22.3879 14.49 21.4819 14.5949 22.1579C14.984 24.6659 16.9336 31.9099 24.7844 31.9099C32.6352 31.9099 34.9557 24.9239 35.3852 22.1419C35.5445 21.1139 35.3025 22.2439 35.3025 22.2439" stroke="white" stroke-width="2" stroke-miterlimit="10"/>
</g>
<defs>
<clipPath id="clip0_70_10">
<rect width="50" height="58" fill="white"/>
</clipPath>
</defs>
</svg>
