<svg width="56" height="56" viewBox="0 0 56 56" fill="none" xmlns="http://www.w3.org/2000/svg">
<path d="M49.8635 6.15998C50.3292 6.62561 50.6986 7.17842 50.9507 7.78683C51.2027 8.39524 51.3325 9.04735 51.3325 9.7059C51.3325 10.3645 51.2027 11.0166 50.9507 11.625C50.6986 12.2334 50.3292 12.7862 49.8635 13.2518L11.5707 51.5446H4.47998V44.4528L42.7728 6.15998C43.7131 5.21978 44.9884 4.69159 46.3181 4.69159C47.6479 4.69159 48.9232 5.21978 49.8635 6.15998Z" fill="#FBB945"/>
<path d="M12.2079 16.9366L5.48568 10.2144C4.65488 11.9558 4.34109 13.8991 4.58156 15.8135C4.82203 17.7279 5.60665 19.5331 6.84232 21.015C8.078 22.4969 9.71285 23.5932 11.5529 24.1737C13.3929 24.7543 15.3609 24.7949 17.2233 24.2906L42.9844 50.0506C43.93 50.9643 45.1966 51.4701 46.5115 51.4589C47.8264 51.4477 49.0843 50.9205 50.0142 49.9907C50.9441 49.061 51.4715 47.8032 51.4829 46.4883C51.4943 45.1734 50.9887 43.9067 50.0751 42.961L24.3151 17.1998C24.8196 15.3373 24.7791 13.3692 24.1985 11.529C23.6179 9.68875 22.5215 8.05375 21.0394 6.81802C19.5574 5.5823 17.7519 4.79771 15.8373 4.5574C13.9227 4.31708 11.9793 4.63112 10.2378 5.46225L16.9601 12.1845L12.2079 16.9366Z" fill="#285BA7"/>
<path d="M28.0256 20.9104L20.9326 28L28.0245 35.0907L35.1141 28L28.0245 20.9093L28.0256 20.9104Z" fill="#285BA7"/>
</svg>
