<svg width="58" height="57" viewBox="0 0 58 57" fill="none" xmlns="http://www.w3.org/2000/svg">
<g clip-path="url(#clip0_52_2624)">
<path d="M49.056 15.0371C49.0615 14.6999 49.2356 14.3775 48.9984 14.0508C48.9538 13.9896 48.4986 13.663 48.3989 13.5987C46.601 12.4445 44.5113 11.4107 42.6484 10.3163C38.6921 7.99241 34.7247 5.71481 30.7561 3.40077C29.2431 2.51887 27.7808 1.51717 26.2474 0.671101C26.0232 0.547586 25.1524 0.0566169 24.9809 0.0177099C24.8242 -0.0174917 24.7567 0.00165306 24.6117 0.0498236C24.3436 0.139372 23.5626 0.622312 23.2536 0.794615C17.4374 4.03254 11.6975 7.4403 5.91239 10.7375C4.25011 11.6849 2.32153 13.0262 0.630766 13.8081C0.4524 13.8908 0.266601 13.9427 0.0702746 13.9594C0.0628427 13.9742 0.0764679 14.0008 0.0702746 14.0211L0.00834189 14.0829C-0.0207665 23.2884 0.0380696 32.4884 0.0702746 41.6883L0.568214 41.7791C7.20616 45.4549 13.7494 49.3067 20.3427 53.0628C21.4934 53.718 22.6454 54.4146 23.8109 55.0384C24.1101 55.199 24.857 55.6584 25.1499 55.551C27.1702 54.2788 29.31 53.2024 31.3655 51.9901C31.9025 51.6732 32.4208 51.3083 32.9504 50.9785C32.9466 50.9748 32.9429 50.9723 32.9386 50.9698C32.6419 50.8031 31.5352 50.3146 31.4788 50.0262C31.4596 48.397 31.498 46.766 31.4801 45.1369C31.4782 44.9664 31.4107 44.8065 31.4089 44.6212C31.3748 41.2604 31.412 37.894 31.4429 34.5338C27.4823 38.2102 20.4461 38.1256 16.7667 32.8521C12.6525 26.9568 16.6583 18.6992 23.7775 18.1774C29.7261 17.7408 34.6727 22.2151 34.3185 28.2556C34.1822 30.5832 33.3158 32.5044 32.0146 33.9533C36.4935 31.3236 41.0066 28.7502 45.5797 26.283L45.9197 26.3053C46.9286 26.9327 48.0266 27.4342 49.0646 28.0054C49.1074 23.68 48.9885 19.3693 49.056 15.0371Z" fill="#285BA7"/>
<path d="M57.9998 34.2913L57.998 47.7747L57.7831 49.2069C57.5013 49.4657 57.2312 49.7609 56.9172 49.9856C55.4792 51.0158 53.6261 51.8828 52.0902 52.7808C49.9758 54.0165 47.8082 55.4339 45.6374 56.5344C44.9042 56.9055 44.6205 57.1804 43.7776 56.8555C42.4782 56.3547 41.0303 55.2739 39.7811 54.5859C38.1597 53.6923 36.5135 52.8685 34.8314 52.1058C34.3 51.8655 33.8516 51.4758 33.2905 51.4777C33.4788 51.3585 33.6696 51.2406 33.7538 51.2054C33.8368 51.172 35.0358 50.7873 35.4458 50.581C37.8649 49.3582 40.2679 47.7914 42.6275 46.4457C44.7078 45.2588 47.1548 44.1181 49.1242 42.7835C49.4488 42.5637 49.7646 42.1987 49.8464 41.8041C49.9938 41.0976 49.9034 39.9754 49.9213 39.2238C49.987 36.5677 49.9833 33.985 49.9195 31.3331C49.899 30.4741 49.956 29.5156 49.8879 28.6442C49.8972 28.6566 49.9052 28.6695 49.9133 28.6831C52.1397 30.1492 54.6616 31.238 56.8268 32.6875C57.3755 33.0555 57.9243 33.612 57.9992 34.2913H57.9998Z" fill="#04FFB8"/>
<path d="M0.0078125 14.0831C0.0133864 14.0368 0.0685066 14.0257 0.0697452 14.0214L0.0078125 14.0831Z" fill="#04FFB8"/>
<path d="M50.0336 41.809C49.955 42.1869 49.6527 42.5365 49.3418 42.747C47.4554 44.0254 45.1118 45.1179 43.1194 46.2549C40.8595 47.5437 38.5581 49.0444 36.2412 50.2153C35.8485 50.413 33.754 51.343 33.7242 51.3486C33.7119 51.3511 33.6753 51.3443 33.6252 51.3313C33.4282 51.2794 31.5349 50.3148 31.4786 50.0264C31.4594 48.3972 31.4978 46.7662 31.4798 45.137C31.4779 44.9666 31.4104 44.8066 31.4086 44.6214C31.3745 41.2606 31.4117 37.8942 31.4426 34.534C31.6414 34.3499 31.8322 34.1566 32.0143 33.9534C36.4933 31.3238 41.0063 28.7504 45.5794 26.2832L45.9194 26.3054C46.9283 26.9329 48.0264 27.4344 49.0644 28.0056C49.195 28.0779 49.3245 28.1507 49.4527 28.2248C49.4644 28.2323 49.6304 28.3558 49.6917 28.4033C49.7041 28.4126 49.7122 28.4188 49.714 28.4206L49.7797 28.4855C49.7859 28.5052 50.0299 28.7887 50.0441 28.9066C50.0441 28.9128 50.0454 28.9184 50.046 28.9246C50.0571 29.0166 50.0658 29.1104 50.0732 29.2049C50.1389 30.0393 50.0838 30.9576 50.1036 31.7802C50.1649 34.3197 50.1686 36.7937 50.1055 39.3374C50.0881 40.0575 50.1748 41.1321 50.0336 41.809Z" fill="#00BAFD"/>
</g>
<defs>
<clipPath id="clip0_52_2624">
<rect width="58" height="57" fill="white"/>
</clipPath>
</defs>
</svg>
