<svg width="56" height="47" viewBox="0 0 56 47" fill="none" xmlns="http://www.w3.org/2000/svg">
<g clip-path="url(#clip0_52_2459)">
<path d="M42.9599 0.00245593L3.02734 9.46063L7.49034 27.8006L47.4229 18.3424L42.9599 0.00245593Z" fill="#FBB945"/>
<path d="M24.4913 18.0473C21.8521 18.0473 19.4624 19.103 17.7325 20.8096C16.3345 22.1888 15.3672 23.9935 15.048 26.0096C14.9718 26.4884 14.9326 26.9786 14.9326 27.4781C14.9326 32.6863 19.2123 36.9084 24.4913 36.9084H55.9999V18.0473H24.4913ZM34.0815 30.607C32.4781 30.607 31.1778 29.3242 31.1778 27.7423C31.1778 26.1604 32.4781 24.8782 34.0815 24.8782C35.6849 24.8782 36.9847 26.1604 36.9847 27.7423C36.9847 29.3242 35.6849 30.607 34.0815 30.607Z" fill="#04FFB8"/>
<path d="M44.9422 8.14743C44.4398 8.02215 43.9141 7.95569 43.3725 7.95569H6.38774C2.85955 7.95569 0 10.7774 0 14.2576V40.698C0 44.1783 2.85955 47 6.38774 47H43.3725C46.9001 47 49.7597 44.1783 49.7597 40.698V14.2576C49.7597 11.3117 47.7107 8.8376 44.9422 8.14743ZM31.1779 27.7423C31.1779 26.1604 32.4782 24.8781 34.0816 24.8781C35.685 24.8781 36.9847 26.1604 36.9847 27.7423C36.9847 29.3242 35.685 30.607 34.0816 30.607C32.4782 30.607 31.1779 29.3242 31.1779 27.7423Z" fill="#285BA7"/>
<path d="M32.3526 18.0473C29.7134 18.0473 27.3237 19.103 25.5939 20.8096C24.6757 21.7155 23.943 22.8049 23.4582 24.0175C23.0297 25.089 22.7939 26.2563 22.7939 27.4781C22.7939 32.6863 27.0736 36.9084 32.3526 36.9084H49.7595V18.0473H32.3526ZM34.0814 30.607C32.478 30.607 31.1777 29.3242 31.1777 27.7423C31.1777 26.1604 32.478 24.8782 34.0814 24.8782C35.6848 24.8782 36.9846 26.1604 36.9846 27.7423C36.9846 29.3242 35.6848 30.607 34.0814 30.607Z" fill="#00BAFD"/>
</g>
<defs>
<clipPath id="clip0_52_2459">
<rect width="56" height="47" fill="white"/>
</clipPath>
</defs>
</svg>
