<svg width="58" height="42" viewBox="0 0 58 42" fill="none" xmlns="http://www.w3.org/2000/svg">
<g clip-path="url(#clip0_89_4)">
<path d="M42.7365 0H2.24306C1.00316 0 0 1.00515 0 2.24751V25.627C0 26.8664 1.00316 27.8715 2.24306 27.8715H6.01306V32.4911C6.01306 32.752 6.30306 32.9091 6.52204 32.7668L13.8312 27.9249C13.8549 27.9101 13.8727 27.8893 13.8874 27.8715H42.7395C43.9764 27.8715 44.9825 26.8664 44.9825 25.624V2.24751C44.9825 1.00812 43.9794 0 42.7395 0H42.7365Z" fill="#285BA7"/>
<path d="M56.5499 17.5353H23.9397C23.1378 17.5353 22.4897 18.1847 22.4897 18.9882V36.8378C22.4897 37.6414 23.1378 38.2907 23.9397 38.2907H45.7637L51.4838 41.9644C51.6229 42.0534 51.8064 41.9555 51.8093 41.7895L51.8685 38.2907H56.5529C57.3548 38.2907 58.0029 37.6414 58.0029 36.8378V18.9882C58.0029 18.1847 57.3548 17.5353 56.5529 17.5353H56.5499Z" fill="#00BAFD"/>
<path d="M35.4481 7.41559H8.07568V9.63938H35.4481V7.41559Z" fill="white"/>
<path d="M19.6165 14.68H8.07568V16.9038H19.6165V14.68Z" fill="white"/>
</g>
<defs>
<clipPath id="clip0_89_4">
<rect width="58" height="42" fill="white"/>
</clipPath>
</defs>
</svg>
