<svg width="52" height="45" viewBox="0 0 52 45" fill="none" xmlns="http://www.w3.org/2000/svg">
<g clip-path="url(#clip0_70_6)">
<path d="M24.3479 0.061753L0.216096 14.3825C-0.0726829 14.5529 -0.0726829 14.971 0.216096 15.1436L24.8372 29.8936C24.9739 29.9755 25.1459 29.9777 25.2847 29.8958L51.7796 14.5064C52.0838 14.3295 52.0706 13.887 51.7576 13.7277L24.7711 0.0462663C24.6366 -0.0223178 24.4779 -0.0156806 24.3479 0.0595406V0.061753Z" fill="url(#paint0_linear_70_6)"/>
<path d="M24.3479 15.1062L0.216096 29.427C-0.0726829 29.5973 -0.0726829 30.0155 0.216096 30.188L24.8372 44.938C24.9739 45.0199 25.1459 45.0221 25.2847 44.9403L51.7796 29.5509C52.0838 29.3739 52.0706 28.9314 51.7576 28.7721L24.7733 15.0907C24.6388 15.0221 24.4801 15.0288 24.3501 15.104L24.3479 15.1062Z" fill="url(#paint1_linear_70_6)"/>
</g>
<defs>
<linearGradient id="paint0_linear_70_6" x1="6.28231e-05" y1="14.9777" x2="52.0001" y2="14.9777" gradientUnits="userSpaceOnUse">
<stop stop-color="#133FED" stop-opacity="0.7"/>
<stop offset="1" stop-color="#365AFF" stop-opacity="0.7"/>
</linearGradient>
<linearGradient id="paint1_linear_70_6" x1="6.28231e-05" y1="30.0221" x2="52.0001" y2="30.0221" gradientUnits="userSpaceOnUse">
<stop stop-color="#1FCEFF" stop-opacity="0.5"/>
<stop offset="1" stop-color="#21CDFC" stop-opacity="0.5"/>
</linearGradient>
<clipPath id="clip0_70_6">
<rect width="52" height="45" fill="white"/>
</clipPath>
</defs>
</svg>
