<svg width="56" height="39" viewBox="0 0 56 39" fill="none" xmlns="http://www.w3.org/2000/svg">
<g clip-path="url(#clip0_89_2)">
<path d="M55.9999 12.346C55.9999 11.5228 55.1745 10.9684 54.4342 11.2954L23.0742 25.1868C22.8723 25.2784 22.7013 25.4264 22.5816 25.613C22.462 25.7996 22.3989 26.0168 22.3999 26.2385V36.9345C22.3999 37.5673 22.9017 38.0802 23.5199 38.0802H51.5199C53.9951 38.0802 55.9999 36.0306 55.9999 33.5005V12.346Z" fill="#FBB945"/>
<path d="M47.0402 6.74046C47.0402 5.93182 46.2349 5.38078 45.4991 5.68542L11.8991 19.5667C11.6912 19.6538 11.5137 19.8007 11.3893 19.9887C11.2649 20.1767 11.1991 20.3974 11.2002 20.6229V36.9413C11.2002 37.5707 11.702 38.0803 12.3202 38.0803H42.5602C45.0354 38.0803 47.0402 36.0408 47.0402 33.5241V6.74046Z" fill="#1AD3BB"/>
<path d="M47.0399 14.5715L23.0741 25.1869C22.6653 25.3683 22.3999 25.7805 22.3999 26.2375V36.9357C22.3999 37.5674 22.9017 38.0803 23.5199 38.0803H42.5599C45.0351 38.0803 47.0399 36.0397 47.0399 33.5242V14.5715Z" fill="#1A6F66"/>
<path d="M35.84 1.13706C35.84 0.330655 35.0347 -0.218145 34.2989 0.0842546L0.698886 13.9319C0.491304 14.0186 0.314094 14.1649 0.189687 14.3523C0.0652798 14.5397 -0.000732148 14.7598 6.12552e-06 14.9847V36.9446C6.12552e-06 37.5718 0.501766 38.0803 1.12001 38.0803H31.36C33.8352 38.0803 35.84 36.0452 35.84 33.5353V1.13706Z" fill="#00BAFD"/>
<path d="M35.8402 9.6759L11.8991 19.5666C11.6912 19.6537 11.5137 19.8006 11.3893 19.9886C11.2649 20.1766 11.1991 20.3973 11.2002 20.6228V36.9412C11.2002 37.5706 11.702 38.0802 12.3202 38.0802H31.3602C33.8354 38.0802 35.8402 36.0452 35.8402 33.5353V9.6759Z" fill="#285BA7"/>
</g>
<defs>
<clipPath id="clip0_89_2">
<rect width="55.9999" height="38.0803" fill="white"/>
</clipPath>
</defs>
</svg>
