<svg width="53" height="55" viewBox="0 0 53 55" fill="none" xmlns="http://www.w3.org/2000/svg">
<g clip-path="url(#clip0_70_14)">
<path d="M40.9495 21.2507C38.5835 26.7712 33.0049 30.6516 26.4998 30.6516C19.9948 30.6516 14.4395 26.7908 12.0635 21.2866L16.0558 20.9572C17.8654 20.9572 17.1389 21.5148 17.7187 19.8355L22.5042 9.11071C23.7939 5.36731 29.2058 5.36731 30.4955 9.11071L35.6175 19.7801C36.1941 21.4594 35.8042 20.9572 37.6137 20.9572L40.9495 21.2507Z" fill="#FBB945"/>
<path d="M51.1939 29.4418L43.7091 35.9047C43.7091 35.9047 41.8662 38.8688 42.4627 40.6035L44.4356 49.5349C45.7352 53.3109 41.3563 56.5195 38.0205 54.237L28.9195 49.3066C28.9195 49.3066 26.2002 48.6382 24.7505 49.6327L14.9796 54.237C11.6438 56.5195 7.26492 53.3109 8.56459 49.5349L10.5374 40.6035C11.1373 38.8688 11.1606 37.6069 9.62766 36.5569L1.80629 29.4418C-1.56953 27.1299 0.103384 21.9354 4.22568 21.9354L12.0637 21.2865C14.4398 26.7908 20.0084 30.6516 26.5001 30.6516C32.9918 30.6516 38.5837 26.7712 40.9498 21.2507L48.7745 21.9354C52.9001 21.9354 54.573 27.1299 51.1939 29.4418Z" fill="#285BA7"/>
<path d="M42.1629 15.3258C42.1629 17.4257 41.733 19.4279 40.9498 21.2507L37.614 20.9572C35.8045 20.9572 36.1944 21.4594 35.6178 19.78L30.4958 9.11069C29.2061 5.36729 23.7941 5.36729 22.5045 9.11069L17.719 19.8355C17.1391 21.5148 17.8656 20.9572 16.0561 20.9572L12.0638 21.2865C11.274 19.454 10.8374 17.4388 10.8374 15.3258C10.8374 6.86073 17.849 0 26.5001 0C35.1513 0 42.1629 6.86073 42.1629 15.3258Z" fill="#1AD3BB"/>
</g>
<defs>
<clipPath id="clip0_70_14">
<rect width="53" height="55" fill="white"/>
</clipPath>
</defs>
</svg>
