<?xml version="1.0" encoding="UTF-8"?>
<svg version="1.1" xmlns="http://www.w3.org/2000/svg" width="64" height="75">
<path d="M0 0 C5.08356676 0.46631214 8.41617852 2.20481715 12.4375 5.1875 C13.33831299 5.84745972 13.33831299 5.84745972 14.25732422 6.52075195 C31.90817107 19.77144591 45.23522408 35.83543681 56 55 C56.61875 54.79375 57.2375 54.5875 57.875 54.375 C58.57625 54.25125 59.2775 54.1275 60 54 C64.18469057 58.18469057 64.125 64.90589379 64.125 70.5625 C64.09347512 72.04191756 64.05556738 73.52129029 64 75 C58.68050971 75.21277961 53.8993394 75.38992166 49 73 C47.625 70.875 47.625 70.875 47 69 C49.64 68.67 52.28 68.34 55 68 C43.56163481 42.25857009 28.01817642 21.85542145 4.82495117 5.62817383 C3.1830936 4.46472433 1.5866953 3.23762233 0 2 C0 1.34 0 0.68 0 0 Z " fill="#1BB6F9" transform="translate(0,0)"/>
</svg>
