<svg xmlns="http://www.w3.org/2000/svg" viewBox="0 0 120 30" width="120" height="30">
  <path fill="#253B80" d="M33.9 8.9h-6.8c-.5 0-.9.4-1 .8L23 26.6c-.1.3.2.6.5.6h3.5c.5 0 .9-.4 1-.8l.8-5.2c.1-.5.5-.8 1-.8h2.2c4.6 0 7.3-2.2 8-6.6.3-1.9 0-3.4-.9-4.5-1.1-1.1-2.7-1.4-5.2-1.4zm.8 6.5c-.4 2.5-2.3 2.5-4.1 2.5h-1l.7-4.6c0-.2.2-.4.5-.4h.5c1.3 0 2.5 0 3.1.7.4.4.5 1 .3 1.8zM53.9 15.3h-3.5c-.3 0-.5.2-.5.4l-.1.7-.2-.3c-.7-.9-2.1-1.2-3.6-1.2-3.4 0-6.3 2.6-6.8 6.2-.3 1.8.1 3.5 1.1 4.7 1 1.1 2.3 1.5 4 1.5 2.8 0 4.4-1.8 4.4-1.8l-.1.9c-.1.3.2.6.5.6h3.1c.5 0 .9-.4 1-.8l1.9-11.9c0-.3-.2-.6-.5-.6h.3zm-4.9 6.7c-.3 1.8-1.7 3-3.5 3-.9 0-1.6-.3-2.1-.8-.5-.5-.6-1.3-.5-2.1.3-1.8 1.7-3 3.4-3 .9 0 1.6.3 2.1.8.5.5.7 1.3.6 2.1zM62.1 15.3h-3.5c-.3 0-.6.2-.8.5l-4.5 6.6-1.9-6.3c-.1-.4-.5-.7-.9-.7h-3.4c-.4 0-.7.4-.5.8l3.6 10.6-3.4 4.8c-.3.4 0 .9.4.9h3.5c.3 0 .6-.2.8-.5l10.9-15.7c.3-.5 0-1-.3-1z"/>
  <path fill="#179BD7" d="M94.6 8.9h-6.8c-.5 0-.9.4-1 .8l-3.1 19.7c-.1.3.2.6.5.6h3.5c.3 0 .6-.2.6-.5l.9-5.5c.1-.5.5-.8 1-.8h2.2c4.6 0 7.3-2.2 8-6.6.3-1.9 0-3.4-.9-4.5-1.1-1.1-2.7-1.4-4.9-1.2zm.8 6.5c-.4 2.5-2.3 2.5-4.1 2.5h-1l.7-4.6c0-.2.2-.4.5-.4h.5c1.3 0 2.5 0 3.1.7.4.4.5 1 .3 1.8zM114.6 15.3h-3.5c-.3 0-.5.2-.5.4l-.1.7-.2-.3c-.7-.9-2.1-1.2-3.6-1.2-3.4 0-6.3 2.6-6.8 6.2-.3 1.8.1 3.5 1.1 4.7 1 1.1 2.3 1.5 4 1.5 2.8 0 4.4-1.8 4.4-1.8l-.1.9c-.1.3.2.6.5.6h3.1c.5 0 .9-.4 1-.8l1.9-11.9c0-.3-.2-.6-.5-.6h.3zm-4.9 6.7c-.3 1.8-1.7 3-3.5 3-.9 0-1.6-.3-2.1-.8-.5-.5-.6-1.3-.5-2.1.3-1.8 1.7-3 3.4-3 .9 0 1.6.3 2.1.8.5.5.7 1.3.6 2.1zM78.1 15.3h-3.5c-.3 0-.6.2-.8.5l-4.5 6.6-1.9-6.3c-.1-.4-.5-.7-.9-.7h-3.4c-.4 0-.7.4-.5.8l3.6 10.6-3.4 4.8c-.3.4 0 .9.4.9h3.5c.3 0 .6-.2.8-.5l10.9-15.7c.3-.5 0-1-.3-1z"/>
  <path fill="#253B80" d="M17.1 8.9h-6.8c-.5 0-.9.4-1 .8L6.2 29.4c-.1.3.2.6.5.6h3.3c.4 0 .8-.3.9-.7l.9-5.4c.1-.5.5-.8 1-.8h2.2c4.6 0 7.3-2.2 8-6.6.3-1.9 0-3.4-.9-4.5-1.1-1.1-2.8-1.1-5-1.1zm.8 6.5c-.4 2.5-2.3 2.5-4.1 2.5h-1l.7-4.6c0-.2.2-.4.5-.4h.5c1.3 0 2.5 0 3.1.7.4.4.5 1 .3 1.8z"/>
  <path fill="#179BD7" d="M19.7 9.2c-.9-1-2.6-1.4-4.8-1.4h-6.8c-.5 0-.9.4-1 .8L4 28.3c-.1.3.2.6.5.6h3.3l.8-5.2v.3c.1-.5.5-.8 1-.8h2.2c4.6 0 7.3-2.2 8-6.6.3-1.9 0-3.4-.9-4.5-.1-.3-.1-.6-.2-.9z"/>
  <path fill="#222D65" d="M11.5 9.2c.1 0 .2-.1.3-.1h4.3c.9 0 1.8.1 2.6.2.2.1.4.1.6.2.3.1.5.2.8.3.3.2.6.3.8.5-.9-5-6.3-5.4-10.2-5.4H4.8c-.6 0-1.1.4-1.2 1L0 25.8c-.1.4.2.8.7.8h4.8l1.2-7.6 1.1-7.2c.1-.3.3-.6.7-.6z"/>
</svg>
