<svg xmlns="http://www.w3.org/2000/svg" viewBox="0 0 16 16" width="16" height="16">
  <path fill="#253B80" d="M4.5 5.2c-.2 1.1-.8 1.1-1.5 1.1H2.6L3 3.6c0-.1.1-.2.3-.2h.2c.5 0 .9 0 1.1.3.2.1.2.4.1.8v.7h-.2z"/>
  <path fill="#253B80" d="M12.4 5.2H11c-.1 0-.3.1-.3.2l-.1.3-.1-.2c-.3-.2-.8-.3-1.4-.3-1.3 0-2.4 1-2.6 2.4-.1.7 0 1.4.4 1.8.4.4.9.6 1.5.6.9 0 1.5-.6 1.5-.6l-.1.3c0 .1.1.3.2.3h1.2c.2 0 .3-.1.4-.3l.7-4.2c-.1-.1-.2-.3-.3-.3zm-1.7 2.4c-.1.7-.6 1.1-1.3 1.1-.3 0-.6-.1-.8-.3-.2-.2-.2-.5-.2-.8.1-.7.6-1.1 1.3-1.1.3 0 .6.1.7.3.3.2.3.5.3.8z"/>
  <path fill="#179BD7" d="M14.4 2.2H11c-.2 0-.3.1-.4.3l-1.1 7c0 .1.1.3.2.3h1.7c.1 0 .3-.1.3-.2l.3-1.9v.1c.1-.2.2-.3.4-.3h.9c1.7 0 2.7-1 3-2.7.1-.8 0-1.4-.3-1.9-.5-.4-1.1-.7-2.1-.7h.5z"/>
  <path fill="#253B80" d="M6.9 2.2H3.5c-.2 0-.3.1-.4.3l-1.1 7c0 .1.1.3.2.3h1.6c.2 0 .3-.1.4-.3l.3-1.9c0-.2.2-.3.4-.3h1.1c1.7 0 2.7-1 3-2.7.1-.8 0-1.4-.3-1.9-.4-.4-1.1-.5-2.1-.5h.3z"/>
  <path fill="#179BD7" d="M7.9 2.5c-.3-.3-.8-.5-1.5-.5H3.5c-.2 0-.3.1-.4.3l-1.1 7c0 .1.1.3.2.3h1.6L4.5 6l-.1.3c0-.2.2-.3.3-.3h.7c1.4 0 2.5-.8 2.8-2.3.1-.7 0-1.2-.3-1.5v.3z"/>
  <path fill="#222D65" d="M4.5 5.2c0-.1.1-.2.3-.2h.2c.5 0 .9 0 1.1.3.2.1.2.4.1.8v.7c-.2 1.1-.8 1.1-1.5 1.1H2.6L3 3.6c0-.1.1-.2.3-.2h1.2v1.8z"/>
  <path fill="#253B80" d="M14.9 2.5c-.3-.3-.8-.5-1.5-.5h-2.9c-.2 0-.3.1-.4.3l-1.1 7c0 .1.1.3.2.3h1.7l.4-2.6.1.3c.1-.2.2-.3.4-.3h.9c1.4 0 2.5-.8 2.8-2.3.1-.7 0-1.2-.3-1.5-.1-.1-.2-.2-.3-.3z"/>
</svg>
