<svg xmlns="http://www.w3.org/2000/svg" viewBox="0 0 48 16" width="48" height="16">
  <path fill="#172B85" d="M19.42 15.15h-3.61L18.94.83h3.61l-3.13 14.32z"/>
  <path fill="#172B85" d="M13.03.83L9.7 10.44l-.4-1.99L7.33.83H3.5l-.05.28c1.27.32 2.5.84 3.65 1.53 1.04.62 1.51 1.13 1.87 2.56l1.59 9.95h3.64L19.42.83h-6.39zm22.7 14.32h3.3L36.25.83h-2.95c-.67 0-1.23.39-1.48 1l-5.2 13.32h3.64l.72-2h4.43l.32 2zm-3.82-4.76l1.83-5.04.99 5.04h-2.82zm-5.95-5.92l.5-2.9c-1.3-.62-2.7-.96-4.12-1-.23 0-.45.01-.68.03-2.46.23-3.59 1.37-3.59 2.67 0 1.14 1.06 1.87 2.94 2.85 1.07.54 1.44.9 1.44 1.4 0 .75-.86 1.09-1.67 1.09-1.42.01-2.83-.37-4.07-1.1l-.51 3.03c1.42.65 2.97.99 4.54.99.27 0 .54-.01.81-.04 2.75-.25 3.82-1.38 3.82-2.75 0-1.14-1.08-1.96-2.97-2.91-1.04-.51-1.41-.85-1.41-1.37 0-.46.55-.96 1.72-.96 1.08.01 2.16.25 3.15.7z"/>
  <path fill="#F9A533" d="M9.7 10.44l-1.97-9.61c-.36-1.43-.83-1.94-1.87-2.56C4.7.84 3.47.32 2.2 0h-.05L0 0c-.05.28-.05.28-.05.28h3.83l1.97 9.61.4 1.99L9.7 10.44z"/>
</svg>
