<svg xmlns="http://www.w3.org/2000/svg" width="550" height="400" viewBox="0 0 550 400" fill="none">
  <circle cx="275" cy="200" r="150" fill="#f0f9ff" />
  <path d="M275 50C196.25 50 132.5 113.75 132.5 192.5C132.5 271.25 196.25 335 275 335C353.75 335 417.5 271.25 417.5 192.5C417.5 113.75 353.75 50 275 50ZM275 300C215.5 300 167.5 252 167.5 192.5C167.5 133 215.5 85 275 85C334.5 85 382.5 133 382.5 192.5C382.5 252 334.5 300 275 300Z" fill="#93c5fd" />
  <path d="M275 120C235.25 120 202.5 152.75 202.5 192.5C202.5 232.25 235.25 265 275 265C314.75 265 347.5 232.25 347.5 192.5C347.5 152.75 314.75 120 275 120ZM275 230C254.5 230 237.5 213 237.5 192.5C237.5 172 254.5 155 275 155C295.5 155 312.5 172 312.5 192.5C312.5 213 295.5 230 275 230Z" fill="#3b82f6" />
  <path d="M275 175C266.75 175 260 181.75 260 190C260 198.25 266.75 205 275 205C283.25 205 290 198.25 290 190C290 181.75 283.25 175 275 175Z" fill="#1d4ed8" />
  <path d="M350 100L400 50" stroke="#3b82f6" stroke-width="5" />
  <path d="M200 100L150 50" stroke="#3b82f6" stroke-width="5" />
  <path d="M350 285L400 335" stroke="#3b82f6" stroke-width="5" />
  <path d="M200 285L150 335" stroke="#3b82f6" stroke-width="5" />
  <circle cx="150" cy="50" r="10" fill="#fbbf24" />
  <circle cx="400" cy="50" r="10" fill="#fbbf24" />
  <circle cx="150" cy="335" r="10" fill="#fbbf24  />
  <circle cx="400" cy="50" r="10" fill="#fbbf24" />
  <circle cx="150" cy="335" r="10" fill="#fbbf24" />
  <circle cx="400" cy="335" r="10" fill="#fbbf24" />
  <path d="M275 350C275 350 325 375 375 350" stroke="#3b82f6" stroke-width="5" />
  <path d="M275 350C275 350 225 375 175 350" stroke="#3b82f6" stroke-width="5" />
</svg>
