<?xml version="1.0" encoding="UTF-8"?>
<svg version="1.1" xmlns="http://www.w3.org/2000/svg" width="1946" height="627">
<path d="M0 0 C5.18768478 3.49096081 7.48370983 7.71030092 9.87939453 13.4152832 C10.2677608 14.3394263 10.2677608 14.3394263 10.66397285 15.28223896 C13.29415778 21.59830261 15.69650517 27.99600814 18.0546875 34.41796875 C18.5179036 35.67111547 18.98145476 36.92413838 19.4453125 38.17704773 C20.42196725 40.81704259 21.39645088 43.45782345 22.36907959 46.0993042 C23.89624746 50.24674035 25.42841063 54.39231987 26.96142578 58.53759766 C28.76462841 63.41425494 30.56686988 68.29126462 32.36764336 73.16881943 C36.51848922 84.41101543 40.69294147 95.64438031 44.875 106.875 C45.5200288 108.60806947 46.16504853 110.34114231 46.81005859 112.07421875 C51.51920628 124.72397384 56.24756278 137.36643773 61 150 C65.5219706 139.85379487 69.07188773 129.39507157 72.67111206 118.89608765 C74.53880668 113.44980286 76.42012945 108.00822769 78.30078125 102.56640625 C78.68774673 101.44599442 79.07471222 100.32558258 79.47340393 99.17121887 C85.27363759 82.39769208 91.22515886 65.67761701 97.18003845 48.95851135 C98.93074467 44.03569642 100.66297255 39.10736322 102.3624115 34.16661072 C103.05186239 32.16228637 103.74598192 30.1596443 104.44165039 28.1574707 C105.23240541 25.87570162 106.013954 23.59070457 106.78295898 21.30151367 C110.88457433 9.54290856 116.4977361 2.01906995 127.5 -3.875 C137.86385222 -7.28201441 150.36326037 -5.64701954 160 -1 C170.1516926 4.76966702 176.92178007 12.05719869 181 23 C181.20753906 22.443125 181.41507813 21.88625 181.62890625 21.3125 C185.3665884 12.05430822 191.02556839 5.47873335 200 1 C200.63035156 0.6803125 201.26070312 0.360625 201.91015625 0.03125 C210.94638028 -3.72949064 223.00557388 -3.42787593 232.1875 -0.25 C238.16266675 2.3172426 242.95830969 5.95315828 248 10 C249.25490234 9.22076172 249.25490234 9.22076172 250.53515625 8.42578125 C266.9216287 -1.49228416 283.3955158 -5.40058034 302.5625 -5.375 C303.2206369 -5.37478851 303.8787738 -5.37457703 304.55685425 -5.37435913 C336.1054705 -5.27345176 363.50173171 7.87724741 385.55883789 30.07080078 C414.48935847 60.25299699 417.5457949 98.2202119 417.3225708 137.9440918 C417.30910774 141.1938299 417.31432233 144.44342889 417.31969929 147.69318199 C417.32307299 150.87463564 417.31634779 154.05600777 417.30657005 157.23744583 C417.30278482 158.7322306 417.30154125 160.22702452 417.3031559 161.7218132 C417.30966267 197.68209452 405.20290912 229.74519758 379.56591797 255.49121094 C357.99408764 276.27604278 331.24465568 287.42158768 301.35009766 287.30078125 C284.71559853 286.98420285 269.79805472 282.48610532 255 275 C255.00888245 276.25787827 255.01776489 277.51575653 255.0269165 278.81175232 C255.10811733 290.68482745 255.16802074 302.55784599 255.20724869 314.43113613 C255.22809439 320.53485657 255.25635743 326.63835225 255.30175781 332.74194336 C255.34532239 338.63583132 255.36915979 344.52950353 255.37950897 350.42354012 C255.38688124 352.66854306 255.40127751 354.91353463 255.42292023 357.15844536 C255.45209461 360.31088353 255.45595005 363.46243808 255.45410156 366.61499023 C255.46848267 367.53640808 255.48286377 368.45782593 255.49768066 369.40716553 C255.43952849 378.61453935 252.15937715 385.47790994 245.9140625 392.1484375 C237.6204027 400.17128391 229.2571417 403.59398475 217.6875 403.5 C216.86080811 403.49427979 216.03411621 403.48855957 215.18237305 403.48266602 C205.13006547 403.19142269 196.98874912 399.87684427 189.68359375 392.890625 C184.01527255 386.52527126 180.75769511 379.66919591 180.73828697 371.04551125 C180.73082148 369.87011083 180.72335599 368.69471042 180.71566427 367.48369181 C180.71856637 365.56054229 180.71856637 365.56054229 180.7215271 363.59854126 C180.71652211 362.21567629 180.71064572 360.83281424 180.70397437 359.4499563 C180.68818491 355.6553717 180.68474427 351.86086118 180.68332577 348.0662477 C180.67962988 343.97222396 180.66447345 339.87824076 180.65071106 335.78424072 C180.62844035 328.69289195 180.61342592 321.6015576 180.60334396 314.51018143 C180.58875667 304.25725481 180.56321968 294.00437846 180.53501268 283.75148134 C180.48954563 267.11672352 180.45293045 250.48195847 180.421875 233.84716797 C180.39168911 217.68830088 180.35733865 201.52945149 180.31738281 185.37060547 C180.31369049 183.8764852 180.31369049 183.8764852 180.30992357 182.35218067 C180.29754897 177.35512451 180.28509243 172.35806856 180.27259517 167.3610127 C180.16902867 125.90736642 180.07982497 84.45369835 180 43 C178.74114724 46.12490781 177.48544026 49.25107106 176.23022461 52.37744141 C175.8795266 53.24788589 175.52882858 54.11833038 175.16750336 55.01515198 C172.10905175 62.64004863 169.24735864 70.32965477 166.47290039 78.06201172 C164.43825577 83.72147956 162.3922828 89.37679556 160.34375 95.03125 C159.98591934 96.0196286 159.62808868 97.0080072 159.25941467 98.02633667 C155.40606969 108.65943435 151.48911563 119.26878306 147.5625 129.875 C147.20958893 130.82859406 146.85667786 131.78218811 146.49307251 132.76467896 C144.70396439 137.59876377 142.91404754 142.43254843 141.12353516 147.26611328 C138.00833793 155.67637941 134.89842196 164.08859717 131.78918457 172.50106812 C130.74738826 175.31956587 129.70524006 178.13793336 128.66308594 180.95629883 C124.68312468 191.72232245 120.71388442 202.49223465 116.75390625 213.265625 C80.93129365 310.71204243 80.93129365 310.71204243 69 333 C68.65114746 333.6590332 68.30229492 334.31806641 67.94287109 334.99707031 C60.00664912 349.90020471 50.72036659 362.85472586 39 375 C38.31164063 375.73992187 37.62328125 376.47984375 36.9140625 377.2421875 C21.67315777 393.22958553 1.26261518 402.78498377 -20.76074219 403.46899414 C-34.41590638 403.60773061 -43.76505582 402.14233907 -53.8984375 392.37890625 C-62.0294006 383.17489783 -61.73727825 372.09792581 -61.2265625 360.48339844 C-60.52240723 352.76500685 -57.22762831 344.9841608 -51.76171875 339.421875 C-45.72669037 334.5510317 -39.50442205 332.76175926 -31.9375 331.5625 C-22.41656577 330.04934163 -16.42625366 326.10270142 -10 319 C-9.48050781 318.46117187 -8.96101563 317.92234375 -8.42578125 317.3671875 C3.25642551 304.81865978 10.91999576 288.05011305 16.875 272.125 C17.16125244 271.36493652 17.44750488 270.60487305 17.74243164 269.82177734 C21.38372119 259.72860865 22.8650858 252.86173062 18.6015625 242.74609375 C18.22075531 241.78474014 17.83994812 240.82338654 17.44760132 239.832901 C16.19692685 236.6910828 14.91112615 233.56495224 13.625 230.4375 C12.739592 228.23020603 11.85681238 226.02185605 10.9765625 223.8125 C9.18669071 219.32827781 7.38439402 214.84938904 5.57128906 210.37451172 C2.28963089 202.26173426 -0.88448596 194.10829836 -4.04888916 185.94924927 C-5.33364406 182.64081783 -6.62572777 179.33526839 -7.91769409 176.02964783 C-12.80272775 163.5291765 -17.65140103 151.01463694 -22.5 138.5 C-28.4839433 123.05621735 -34.47848868 107.61667765 -40.5 92.1875 C-40.82841888 91.34574219 -41.15683777 90.50398438 -41.49520874 89.63671875 C-44.7603825 81.26928527 -48.03305108 72.90494974 -51.33203125 64.55078125 C-51.5897934 63.8974028 -51.84755554 63.24402435 -52.11312866 62.57084656 C-53.28587689 59.59832148 -54.46080264 56.62670808 -55.640625 53.65698242 C-64.80206691 30.46982664 -64.80206691 30.46982664 -60.1015625 18.19140625 C-54.47343223 6.99501943 -44.43934243 -0.17669341 -32.765625 -4.08203125 C-21.57253901 -6.81063624 -9.94872392 -6.02484834 0 0 Z M263.7578125 83.69921875 C256.76044587 92.85799419 254.87815787 103.38076698 254.80712891 114.7043457 C254.79895142 115.4403299 254.79077393 116.17631409 254.78234863 116.93460083 C254.75771997 119.34831979 254.74103918 121.76198096 254.7265625 124.17578125 C254.72123882 125.00638754 254.71591515 125.83699383 254.71043015 126.69277 C254.68379945 131.0874069 254.66439065 135.48201635 254.64990234 139.87670898 C254.63656224 143.4954556 254.60869396 147.11363848 254.56787109 150.73217773 C254.51835215 155.12346064 254.49375911 159.51423258 254.48667526 163.9057827 C254.47999902 165.56943547 254.4648725 167.23307844 254.44078445 168.89657021 C254.27065954 181.35292198 256.02927776 190.59170421 264.796875 199.98828125 C275.4667279 209.73114338 286.8526981 215.88900072 301.58203125 215.375 C313.69277617 214.04627827 323.64330662 207.35081048 331.375 198.125 C337.9932493 189.29614694 342.22013142 180.04727271 342.29052734 168.87817383 C342.29724457 168.20392365 342.30396179 167.52967346 342.31088257 166.83499146 C342.32973984 164.62559449 342.33378095 162.41650348 342.3359375 160.20703125 C342.34237569 158.65394471 342.34910479 157.10085935 342.35610962 155.54777527 C342.36805303 152.29736525 342.37179366 149.04706125 342.37060547 145.79663086 C342.37040285 141.66234979 342.39765868 137.5287605 342.43214989 133.39464283 C342.45455903 130.18669102 342.4584387 126.97890175 342.45738602 123.77087975 C342.45972274 122.24846713 342.46843551 120.72604869 342.48405075 119.20371437 C342.63354708 103.11943615 338.77437165 91.19976496 327.6875 79.25 C323.60187734 75.36591029 318.96658791 72.61816935 314 70 C313.39929687 69.65710938 312.79859375 69.31421875 312.1796875 68.9609375 C294.51688665 60.48596131 275.26625389 70.2727038 263.7578125 83.69921875 Z " fill="#05003C" transform="translate(1213,188)"/>
<path d="M0 0 C7.57350161 7.23804839 11.96473518 15.55997575 12.41796875 26.09765625 C11.9053755 38.27174599 7.13029405 49.275128 -1.3984375 57.90234375 C-8.17630776 64.11918225 -15.92201659 66.62686368 -25.078125 66.4609375 C-33.53888446 65.59348965 -41.07408333 62.13872401 -48.51953125 58.25390625 C-72.62440056 45.70497284 -100.64564511 43.76397476 -126.734375 51.03515625 C-135.48632849 54.16374363 -141.8870797 58.95342791 -146.20703125 67.25390625 C-150.73880979 76.83358256 -151.24590764 88.83428034 -148.51171875 99.078125 C-142.43583346 115.03469754 -125.24888126 122.55257855 -110.70703125 129.19140625 C-101.18384473 133.20108698 -91.42963817 136.64224853 -81.62109375 139.8828125 C-42.5573324 152.86107895 -9.62211526 174.07352663 10.10546875 211.00390625 C25.86588447 243.7885446 25.63269826 287.92026719 14.12207031 321.93652344 C3.61555817 350.51077141 -15.67958639 372.89648028 -43.35571289 385.98706055 C-82.06447068 403.45501511 -130.01435723 402.82011374 -169.42431641 388.18212891 C-195.33177452 378.11188008 -220.83967922 362.87195374 -232.86328125 336.671875 C-236.67607946 326.02781334 -235.79535798 314.44041737 -231.31640625 304.19921875 C-225.90084706 294.07790668 -217.89549211 286.31957681 -206.86328125 282.6640625 C-197.47614119 280.60637419 -189.40079193 282.55934571 -181.3984375 287.6640625 C-176.26053851 291.43066783 -172.19482643 295.87932394 -168 300.64453125 C-155.7228565 314.28115401 -140.95000196 322.07654573 -122.70703125 324.19140625 C-103.68101385 325.16637693 -83.13684719 324.90170459 -67.74609375 312.17578125 C-57.96140111 302.65351331 -54.82894921 289.73891263 -54.41918945 276.47314453 C-54.26453504 263.73023301 -55.85989756 251.63570002 -63.70703125 241.19140625 C-64.22136719 240.49660156 -64.73570312 239.80179687 -65.265625 239.0859375 C-79.55241088 221.37306388 -104.05039395 213.52208767 -124.70703125 206.19140625 C-162.76252409 192.5728854 -198.80851281 175.02036196 -217.45703125 136.81640625 C-229.62991496 108.53596934 -229.38612153 71.80561667 -218.484375 43.09277344 C-207.34698387 15.8509386 -185.74542413 -3.49108392 -159.00292969 -14.8671875 C-113.35343991 -33.58522585 -39.42303887 -33.03011365 0 0 Z " fill="#05003C" transform="translate(889.70703125,76.80859375)"/>
<path d="M0 0 C0.82927002 0.00757324 1.65854004 0.01514648 2.51293945 0.02294922 C12.7233998 0.29629227 21.14865022 3.33824681 28.625 10.4375 C36.89457936 19.32729781 38.07169723 28.58245436 38.05737305 40.39282227 C38.07266052 42.29673988 38.07266052 42.29673988 38.08825684 44.23912048 C38.11566077 47.69304616 38.1250885 51.14680723 38.13111091 54.60082746 C38.14053822 58.22035479 38.16674486 61.83976125 38.19111633 65.45921326 C38.23466584 72.30125425 38.2632835 79.14327163 38.28643972 85.98540872 C38.31355359 93.77997687 38.35746109 101.57442272 38.40272844 109.36890328 C38.49540914 125.3917067 38.56716542 141.41453209 38.625 157.4375 C39.74396919 156.91920624 39.74396919 156.91920624 40.88554382 156.39044189 C41.8690834 155.93836365 42.85262299 155.4862854 43.8659668 155.02050781 C45.32524849 154.34752655 45.32524849 154.34752655 46.81401062 153.66094971 C50.33295973 152.12936894 53.71510701 151.12305351 57.4375 150.1875 C58.66082031 149.87296875 59.88414062 149.5584375 61.14453125 149.234375 C89.49423295 142.74353421 118.6925811 148.41007939 143.33203125 163.29296875 C148.44434679 166.6223415 153.03054495 170.4370907 157.625 174.4375 C158.57439453 175.18773437 158.57439453 175.18773437 159.54296875 175.953125 C165.08582666 180.36711711 169.31423542 185.85117941 173.625 191.4375 C174.23472656 192.21996094 174.84445312 193.00242188 175.47265625 193.80859375 C196.05683444 221.61364538 198.10906516 253.57344455 198.06090808 286.89688873 C198.05778166 290.24455801 198.06394535 293.59218646 198.06994683 296.93984985 C198.08389747 304.83835366 198.08250592 312.73674904 198.07104492 320.63525391 C198.05952808 328.75110354 198.07372056 336.86662407 198.1004414 344.98243046 C198.12264764 351.99271735 198.12922603 359.00290125 198.12336498 366.01322079 C198.12001138 370.18230548 198.12230538 374.3511785 198.13961601 378.52023315 C198.15516613 382.43414713 198.15104135 386.3475736 198.13231087 390.26146889 C198.12864951 391.68881454 198.13166107 393.11619706 198.14219666 394.54350853 C198.21896648 405.81142049 196.68143377 415.70718673 189.3828125 424.65625 C182.14457857 431.99099371 172.92559344 435.73590725 162.68652344 435.95629883 C161.9030957 435.95009521 161.11966797 435.9438916 160.3125 435.9375 C159.4865332 435.93322998 158.66056641 435.92895996 157.80957031 435.92456055 C150.62628576 435.72611565 144.87967366 434.04442842 138.625 430.4375 C137.94179687 430.06496094 137.25859375 429.69242187 136.5546875 429.30859375 C129.27944641 424.7891258 125.60484152 417.45844656 123.2686882 409.46998024 C122.02604262 403.61575118 122.22984484 397.69669592 122.27197266 391.73901367 C122.2711402 390.28081627 122.26891891 388.82261911 122.26542664 387.36442566 C122.26050448 384.24226872 122.26451908 381.1203006 122.27544022 377.99815941 C122.29190947 373.04958346 122.28328443 368.10123987 122.27059937 363.15266418 C122.24058942 349.97367333 122.24190228 336.79472586 122.26085222 323.61571819 C122.27322467 314.94667673 122.27121536 306.27790144 122.24246442 297.60889035 C122.22732715 292.7015528 122.23456898 287.794943 122.25917459 282.8876518 C122.26932723 279.820041 122.25846432 276.75275538 122.24205971 273.68518257 C122.23864159 272.27641596 122.24355983 270.86759692 122.25802803 269.45890045 C122.39581823 255.14234693 118.3857169 243.11276448 108.625 232.4375 C98.65587633 223.45167381 88.6713398 219.64704341 75.2734375 220.0546875 C64.42811984 221.19263304 54.68410458 226.33606208 47.8125 234.8125 C39.48673171 246.33752185 38.3258261 257.17117538 38.36962891 271.14599609 C38.36687435 272.61714369 38.36319164 274.08828979 38.35865784 275.55943298 C38.35058491 278.71212147 38.34836748 281.8647392 38.35060501 285.01743698 C38.35345399 290.01157092 38.33902731 295.00556523 38.32162476 299.99966431 C38.27474841 314.19571858 38.25066358 328.39176231 38.24414062 342.58789062 C38.24038045 350.44019736 38.22227756 358.29234486 38.18904626 366.14458334 C38.16892682 371.1000167 38.1664149 376.05503675 38.17732644 381.01049399 C38.17994897 384.10420811 38.16585535 387.19768561 38.14724541 390.29133797 C38.14196092 391.71544211 38.14335543 393.13959086 38.15228081 394.56367683 C38.22513503 407.21779372 36.19027443 416.90117552 27.2734375 426.203125 C16.30675081 435.45525595 4.33102924 436.52674052 -9.375 435.4375 C-18.91110354 433.39738005 -26.59586489 427.3261326 -32.125 419.453125 C-36.18233473 412.91067275 -37.49802617 406.62646828 -37.50642776 398.98085594 C-37.51026891 397.66792765 -37.51411005 396.35499936 -37.5180676 395.00228536 C-37.51728739 393.54680143 -37.51640861 392.09131756 -37.51544189 390.63583374 C-37.51802613 389.08843239 -37.52103946 387.54103171 -37.5244453 385.99363196 C-37.53251173 381.73917035 -37.53430467 377.48472562 -37.53504276 373.23025727 C-37.53689395 368.64249357 -37.54444165 364.05473862 -37.55117798 359.46697998 C-37.56475959 349.43380081 -37.57078583 339.40062563 -37.57518864 329.36743879 C-37.57795151 323.10195932 -37.58218896 316.83648139 -37.58669281 310.57100296 C-37.59888556 293.22194961 -37.60918466 275.87289749 -37.6125679 258.52383995 C-37.61278747 257.41346091 -37.61300703 256.30308186 -37.61323325 255.15905497 C-37.61356067 253.48951014 -37.61356067 253.48951014 -37.6138947 251.78623712 C-37.61433817 249.53083126 -37.61478473 247.27542539 -37.61523438 245.02001953 C-37.6154558 243.9012613 -37.61567723 242.78250307 -37.61590537 241.62984307 C-37.61985266 223.5054334 -37.63730455 205.38106394 -37.6605939 187.2566698 C-37.68431458 168.64628257 -37.69677009 150.03591551 -37.69793582 131.42551291 C-37.69885221 120.97744343 -37.7045954 110.52942635 -37.72275543 100.08137131 C-37.73816611 91.18376417 -37.74327118 82.28622562 -37.73501733 73.38860767 C-37.73111419 68.85056135 -37.73202402 64.31265314 -37.74607468 59.77462387 C-37.75883368 55.61565006 -37.75759858 51.45691783 -37.74548396 47.29794426 C-37.74353042 45.79790562 -37.7465895 44.29784974 -37.75532833 42.79783528 C-37.81878545 31.16357703 -37.1893141 20.5999508 -29.390625 11.44140625 C-21.16519381 3.26379734 -11.46056541 -0.14775721 0 0 Z " fill="#05003C" transform="translate(961.375,35.5625)"/>
<path d="M0 0 C0.94615173 -0.0049649 1.89230347 -0.00992981 2.86712646 -0.01504517 C5.97343701 -0.0295549 9.0796964 -0.03645207 12.18603516 -0.04199219 C13.79296675 -0.04623325 13.79296675 -0.04623325 15.4323616 -0.05056 C21.10823051 -0.06551162 26.7840743 -0.07476496 32.45996094 -0.07910156 C38.27033366 -0.08456244 44.08046925 -0.1085517 49.89076805 -0.13707352 C54.40374379 -0.15586934 58.91666451 -0.16091455 63.42967606 -0.16243744 C65.56870435 -0.16542935 67.70773251 -0.17333776 69.84672165 -0.18662262 C86.3701147 -0.2818748 103.356049 0.10319732 118.91259766 6.34863281 C119.69046631 6.64906494 120.46833496 6.94949707 121.26977539 7.2590332 C132.74094747 11.83831285 142.74164462 18.08028429 152.10009766 26.16113281 C152.83486328 26.75152344 153.56962891 27.34191406 154.32666016 27.95019531 C173.69580905 44.03411754 187.2333794 69.90684461 189.58496094 94.88354492 C189.74314584 96.73479305 189.89627806 98.58647718 190.04541016 100.43847656 C190.12959198 101.46883026 190.2137738 102.49918396 190.30050659 103.5607605 C191.37477197 117.11311731 192.16938826 130.68410515 192.95996094 144.25537109 C193.18147697 148.05604425 193.40946451 151.85629928 193.63911629 155.65648842 C193.81876621 158.64382145 193.99453757 161.6313738 194.16924667 164.61899948 C194.25168804 166.01979476 194.3353674 167.42051788 194.42044449 168.82115555 C195.93986602 193.9388788 195.93986602 193.9388788 193.97509766 205.03613281 C193.84458008 205.78660889 193.7140625 206.53708496 193.57958984 207.31030273 C190.24905894 224.88051484 182.02971734 240.89905997 170.10009766 254.16113281 C169.16230469 255.22267578 169.16230469 255.22267578 168.20556641 256.30566406 C152.52113275 273.04673325 128.57671389 283.29542895 105.77957344 284.2592392 C103.18818099 284.30424951 100.59837394 284.31907362 98.0065918 284.32226562 C96.53887329 284.32971298 96.53887329 284.32971298 95.04150391 284.33731079 C91.82274657 284.3518447 88.60403859 284.35872145 85.38525391 284.36425781 C84.27745512 284.36708519 83.16965633 284.36991257 82.02828789 284.37282562 C76.16021362 284.38778644 70.29216371 284.39703423 64.42407227 284.40136719 C58.40609191 284.40683237 52.38834001 284.43082818 46.37043095 284.45933914 C41.70569745 284.47810247 37.04101734 284.48317846 32.37624931 284.48470306 C30.1602091 284.48770173 27.94416919 284.49563415 25.72816658 284.50888824 C-8.49275795 284.6988794 -36.52864629 276.04510834 -61.89990234 252.16113281 C-62.50318359 251.62230469 -63.10646484 251.08347656 -63.72802734 250.52832031 C-92.99645499 223.31141796 -93.85805298 183.45101357 -96.02490234 146.41113281 C-96.06918995 145.65955147 -96.11347755 144.90797012 -96.15910721 144.13361359 C-97.24819182 125.61155273 -98.29619705 107.09596774 -98.33740234 88.53613281 C-98.34330383 87.78883911 -98.34920532 87.04154541 -98.35528564 86.27160645 C-98.44538505 69.8291578 -98.44538505 69.8291578 -94.89990234 63.16113281 C-92.27847651 60.75399521 -91.33971621 60.18700422 -87.71240234 59.97363281 C-69.99296912 65.49280054 -58.92536901 92.62028078 -49.96813965 107.3996582 C-48.56118961 109.71965467 -47.15078143 112.03753867 -45.74028015 114.3553772 C-42.19180382 120.18660242 -38.65056781 126.02219147 -35.11296082 131.86001587 C-32.62586532 135.96414295 -30.13673653 140.0670293 -27.64599609 144.16894531 C-27.29548187 144.74622375 -26.94496765 145.3235022 -26.58383179 145.91827393 C-24.81684331 148.8282315 -23.04948494 151.73796389 -21.28173828 154.64746094 C-18.06061029 159.94986894 -14.84210996 165.25379371 -11.63548279 170.56498718 C-3.63701455 183.8126914 4.43997939 196.99806018 12.81494141 210.01269531 C15.04243273 213.48002293 17.21652904 216.97356146 19.35400391 220.49707031 C19.88018311 221.3561499 20.4063623 222.21522949 20.94848633 223.1003418 C21.92439421 224.69740965 22.8904275 226.30058101 23.84350586 227.91137695 C27.72617407 234.22574352 32.47858581 239.55931026 39.35009766 242.59863281 C48.68549031 243.99894171 56.7119883 243.85042642 65.10009766 239.16113281 C74.0087958 232.43011644 77.13528473 219.12605352 80.85656738 209.00469971 C82.4967831 204.54566566 84.15708116 200.0940988 85.81494141 195.64160156 C86.16340118 194.70445312 86.51186096 193.76730469 86.87088013 192.80175781 C90.79288453 182.26930263 94.81947181 171.7773881 98.85009766 161.28613281 C100.35714808 157.36055866 101.86358178 153.43474823 103.36962891 149.50878906 C103.74948944 148.51861786 104.12934998 147.52844666 104.52072144 146.50827026 C109.21802383 134.25624728 113.87844159 121.99020148 118.53759766 109.72363281 C118.94868774 108.64156555 119.35977783 107.55949829 119.7833252 106.44464111 C120.95041168 103.37238673 122.11715886 100.30000382 123.28369141 97.22753906 C123.62663742 96.3244249 123.96958344 95.42131073 124.32292175 94.49082947 C124.956098 92.82228299 125.58845095 91.15342376 126.21981812 89.48419189 C126.80536396 87.93893549 127.39423933 86.39493653 127.98648071 84.85223389 C130.87115899 77.29149459 131.44522287 71.43766453 128.10009766 63.91113281 C123.95274231 56.5610975 118.57698897 53.44870097 110.72509766 50.72363281 C103.28825417 48.67742616 96.9582142 48.44730069 89.91259766 51.84863281 C78.17011828 60.63213197 74.08211615 82.23037514 69.35095215 95.32141113 C67.76546587 99.7027966 66.16626563 104.07919861 64.56991577 108.45663452 C63.6827753 110.88942128 62.79655067 113.32254221 61.9112854 115.75601196 C58.08153453 126.26591974 54.12347499 136.72400609 50.10009766 147.16113281 C46.4719625 145.47391482 44.43096214 143.56919402 41.78759766 140.53613281 C41.06958984 139.71886719 40.35158203 138.90160156 39.61181641 138.05957031 C38.26847632 136.50940181 36.92624079 134.95825232 35.5914917 133.40068054 C31.39814489 128.54519211 27.02149244 123.93579605 22.47900391 119.40722656 C21.77541245 118.70267838 21.07182098 117.99813019 20.34690857 117.27223206 C18.86995118 115.79459915 17.39175023 114.31820825 15.91235352 112.84301758 C13.66844681 110.604468 11.42993061 108.36062808 9.19189453 106.11621094 C7.74625148 104.67122878 6.3002982 103.22655689 4.85400391 101.78222656 C3.86612633 100.79131264 3.86612633 100.79131264 2.85829163 99.78038025 C-1.01512145 95.92611992 -5.00417595 92.26716397 -9.13902283 88.69517517 C-11.14229546 86.94996487 -13.05469916 85.13551595 -14.93505859 83.25878906 C-15.59957031 82.59556641 -16.26408203 81.93234375 -16.94873047 81.24902344 C-17.61324219 80.58064453 -18.27775391 79.91226563 -18.96240234 79.22363281 C-19.63078125 78.55912109 -20.29916016 77.89460938 -20.98779297 77.20996094 C-25.49725453 72.69173463 -29.73910276 68.00014977 -33.89990234 63.16113281 C-34.75455078 62.19949219 -35.60919922 61.23785156 -36.48974609 60.24707031 C-45.11787447 50.28380727 -54.68655722 38.04727578 -54.20458984 24.20410156 C-53.38220694 18.68991873 -50.76490707 14.53123335 -46.52490234 10.97363281 C-33.21464786 1.84304703 -15.70614816 0.02011448 0 0 Z " fill="#00A5EC" transform="translate(1750.89990234375,188.8388671875)"/>
<path d="M0 0 C1.72154361 -0.00202403 3.44308638 -0.0049382 5.16462708 -0.00869751 C8.75786571 -0.01310183 12.35087945 -0.00674876 15.9440918 0.00732422 C20.54065594 0.02445389 25.13669593 0.01453917 29.73324108 -0.00339317 C33.28237335 -0.01424929 36.8313819 -0.01077697 40.38051796 -0.0030098 C42.07533137 -0.00101485 43.77015618 -0.00344218 45.46495628 -0.01044846 C47.8339543 -0.01809757 50.20210943 -0.00641289 52.57104492 0.01025391 C53.26469147 0.00418121 53.95833801 -0.00189148 54.67300415 -0.00814819 C59.92288995 0.06001475 64.03296811 1.3106244 67.9140625 4.93359375 C71.78864827 10.00035975 72.76953125 12.81876997 72.76953125 19.15625 C71.83360792 25.22512785 68.47564967 30.25392606 65.26953125 35.3984375 C66.14319336 35.66849609 67.01685547 35.93855469 67.91699219 36.21679688 C71.12523598 37.34757899 73.92502669 38.68311046 76.91015625 40.3046875 C77.97121582 40.87840088 79.03227539 41.45211426 80.12548828 42.04321289 C81.24552246 42.65543701 82.36555664 43.26766113 83.51953125 43.8984375 C84.69627441 44.53735485 85.87319684 45.17594214 87.05029297 45.81420898 C94.22919635 49.71280537 101.382259 53.65746319 108.51196289 57.64526367 C114.62797089 61.06101992 120.79030169 64.38782097 126.95703125 67.7109375 C134.82399404 71.95253746 142.63240534 76.28060952 150.39453125 80.7109375 C158.64827756 85.42110413 166.98948706 89.93531776 175.39141846 94.37289429 C213.78776865 114.66396754 213.78776865 114.66396754 224.26953125 124.3984375 C225.09066406 125.12933594 225.91179687 125.86023438 226.7578125 126.61328125 C243.89454461 142.65783923 253.12667797 166.52286727 260.26953125 188.3984375 C282.70372665 175.10155419 282.70372665 175.10155419 305.08203125 161.7109375 C313.48186893 156.66144511 321.89864822 151.64170971 330.33203125 146.6484375 C331.44175293 145.99133789 332.55147461 145.33423828 333.69482422 144.65722656 C337.85545234 142.19417266 342.01629469 139.73148114 346.1776123 137.26959229 C350.85531566 134.5021146 355.53169254 131.73240804 360.20703125 128.9609375 C360.87439301 128.56553772 361.54175476 128.17013794 362.2293396 127.76275635 C369.56856363 123.41244348 376.89047841 119.03638369 384.171875 114.58984375 C384.80667282 114.20250565 385.44147064 113.81516754 386.09550476 113.41609192 C389.08819317 111.58886479 392.07773974 109.75680432 395.06225586 107.91625977 C417.17585119 94.37203774 417.17585119 94.37203774 430.79296875 96.859375 C440.15708272 99.30845096 445.88201099 104.06492112 451.04296875 112.15234375 C455.29934614 119.94666541 455.66042877 128.84201698 453.51171875 137.42578125 C448.38999118 150.83502862 436.33580668 156.53874538 424.39453125 163.2734375 C422.07915879 164.59371219 419.76491747 165.91568122 417.453125 167.2421875 C416.86124893 167.58180511 416.26937286 167.92142273 415.65956116 168.27133179 C409.19245885 171.99664664 402.82314131 175.87889452 396.45703125 179.7734375 C385.53521828 186.45061718 374.53652071 192.98362333 363.4753418 199.42724609 C356.95139357 203.23017426 350.45451383 207.07313737 343.98390198 210.96578979 C339.55906074 213.62722711 335.1251423 216.27279221 330.68359375 218.90625 C330.05314148 219.28007309 329.42268921 219.65389618 328.77313232 220.03904724 C327.47977391 220.80576496 326.18636717 221.57240119 324.89291382 222.33895874 C314.39730282 228.55990386 303.91321225 234.79889172 293.45703125 241.0859375 C282.61157895 247.60566584 271.73428968 254.07040192 260.83984375 260.5078125 C256.51281163 263.06545003 252.19575917 265.6387347 247.88671875 268.2265625 C246.88471436 268.82581543 245.88270996 269.42506836 244.8503418 270.04248047 C242.97924469 271.1618863 241.11072884 272.28562304 239.24536133 273.41455078 C230.46218832 278.65441068 223.54081351 280.1965881 213.26953125 279.3984375 C208.8641015 278.16182564 207.08208235 276.55414559 204.83203125 272.7109375 C201.32489164 266.06800247 204.9705688 257.21777643 206.80859375 250.3984375 C212.25403718 229.59196709 210.1569311 204.86032586 199.89453125 185.8515625 C190.6463527 170.87353419 172.94587849 164.19738536 157.99697876 156.23330688 C148.70314389 151.28198001 139.50818454 146.18173077 130.36157227 140.9621582 C123.80222923 137.23113991 117.16842072 133.6803293 110.47045898 130.20581055 C103.15044155 126.38637036 95.98842098 122.30365109 88.81640625 118.21484375 C82.1158139 114.40768901 75.34662361 110.77163496 68.50561523 107.22460938 C60.84463412 103.22799957 53.33729775 98.9678473 45.83203125 94.6875 C44.90519531 94.15898437 43.97835937 93.63046875 43.0234375 93.0859375 C42.20174072 92.61542969 41.38004395 92.14492187 40.53344727 91.66015625 C38.47124945 90.51085847 36.39036679 89.43468231 34.26953125 88.3984375 C33.82222656 89.01332031 33.37492187 89.62820312 32.9140625 90.26171875 C28.55967307 96.08304535 25.73624029 99.60279936 18.45703125 101.2734375 C13.98914096 101.66964664 10.04443158 100.8622946 6.26953125 98.3984375 C2.67472665 94.40653173 0.11674079 90.5907775 -2.2956543 85.75390625 C-2.77473236 84.80144516 -2.77473236 84.80144516 -3.26348877 83.82974243 C-4.30588869 81.75228709 -5.33674228 79.66934489 -6.3671875 77.5859375 C-7.09453322 76.12885823 -7.82247384 74.67207579 -8.55097961 73.21557617 C-10.07126845 70.17188104 -11.58617165 67.12558803 -13.09692383 64.07714844 C-15.02879186 60.17939847 -16.97117875 56.28701181 -18.91726971 52.39634705 C-20.41923305 49.39187531 -21.91701019 46.38533295 -23.41340065 43.37808228 C-24.12809158 41.94235963 -24.84373596 40.50711117 -25.56036949 39.07235718 C-26.56210133 37.06453369 -27.55851071 35.05415675 -28.5534668 33.04296875 C-29.120186 31.90190674 -29.68690521 30.76084473 -30.27079773 29.58520508 C-33.35401799 22.85388945 -34.65380869 17.63385919 -32.73046875 10.3984375 C-30.43038046 5.99541134 -27.60725899 3.80312816 -23.11987305 1.73193359 C-15.67831849 -0.56881418 -7.71098608 -0.03200939 0 0 Z " fill="#00A5EC" transform="translate(103.73046875,46.6015625)"/>
<path d="M0 0 C1.16381195 -0.00262848 1.16381195 -0.00262848 2.35113525 -0.00531006 C4.92673963 -0.00972521 7.50227573 -0.00678976 10.07788086 -0.00341797 C11.86950188 -0.00409158 13.66112282 -0.00506209 15.45274353 -0.00631714 C19.21638861 -0.00779404 22.98001001 -0.00564155 26.74365234 -0.00097656 C31.54958793 0.00469201 36.35546732 0.00146001 41.16140079 -0.00454903 C44.86675939 -0.00817942 48.5721049 -0.0070042 52.27746391 -0.00442123 C54.04794763 -0.00375731 55.81843257 -0.00456157 57.58891487 -0.00690079 C60.07753724 -0.00946485 62.56607161 -0.00553308 65.0546875 0 C65.77659775 -0.00202423 66.498508 -0.00404846 67.24229431 -0.00613403 C82.74053242 0.05710841 82.74053242 0.05710841 88.48022461 5.12939453 C91.8596922 9.57606242 93.4125978 13.40179686 93.08789062 19.03710938 C92.33731499 22.85663166 90.77283239 26.01391129 88.98413086 29.43017578 C88.62781082 30.12592712 88.27149078 30.82167847 87.90437317 31.53851318 C86.77257209 33.74058849 85.62799576 35.93560629 84.48022461 38.12939453 C84.11971008 38.82217499 83.75919556 39.51495544 83.38775635 40.22872925 C80.83820143 45.12496613 78.25907034 50.00516698 75.66772461 54.87939453 C75.27725952 55.6138681 74.88679443 56.34834167 74.48449707 57.10507202 C72.5298174 60.77979204 70.57231326 64.45298957 68.61254883 68.125 C66.75383991 71.61014382 64.91447161 75.10519542 63.07788086 78.60205078 C62.1295886 80.38249247 61.18045774 82.16248794 60.23022461 83.94189453 C59.82570068 84.72209961 59.42117676 85.50230469 59.00439453 86.30615234 C55.99088397 91.88218907 52.71871336 96.04989828 46.48022461 98.12939453 C40.7903675 98.69296133 36.31114058 98.45735887 31.48022461 95.12939453 C28.1315578 91.73148262 25.33476365 87.94087252 22.48022461 84.12939453 C8.06084017 92.52165406 -6.33133879 100.95342554 -20.58227539 109.62939453 C-21.15679443 109.97914337 -21.73131348 110.32889221 -22.32324219 110.6892395 C-25.81350664 112.81500053 -29.30193657 114.94375831 -32.78985596 117.07336426 C-37.94706329 120.22158432 -43.10711226 123.3651296 -48.26977539 126.50439453 C-48.83726501 126.84947052 -49.40475464 127.19454651 -49.98944092 127.55007935 C-63.011024 135.46276996 -76.11107733 143.24246362 -89.22961426 150.99308777 C-92.77451481 153.08946198 -96.30767207 155.20358518 -99.82836914 157.34033203 C-108.12159254 162.35820922 -116.36549888 166.81937365 -125.51977539 170.12939453 C-127.15366211 170.74814453 -127.15366211 170.74814453 -128.82055664 171.37939453 C-151.39525753 178.48487416 -179.0260917 174.81142328 -201.51977539 169.12939453 C-201.49308273 170.0455957 -201.46639008 170.96179688 -201.43888855 171.90576172 C-200.52514519 203.90371798 -200.18180948 235.90568872 -199.92513287 267.91427422 C-199.86450572 275.46712804 -199.79491414 283.01983042 -199.71788818 290.57253456 C-199.65789207 296.50974017 -199.60591203 302.44698281 -199.55996102 308.38431358 C-199.53263342 311.89293888 -199.50207071 315.40145787 -199.46294594 318.90997314 C-199.41994478 322.78774152 -199.3935912 326.66552845 -199.36865234 330.54345703 C-199.34619698 332.24199829 -199.34619698 332.24199829 -199.32328796 333.97485352 C-199.27951312 345.00987519 -200.58440429 354.24536828 -207.51977539 363.12939453 C-214.19757129 369.68301654 -221.14787223 372.25666293 -230.39477539 372.56689453 C-239.22258368 372.34973989 -246.47779297 369.98724718 -252.98852539 363.89111328 C-260.12664705 355.67863148 -261.812045 346.15627086 -261.83621216 335.6192627 C-261.84608811 334.69266641 -261.85596407 333.76607013 -261.86613929 332.81139517 C-261.89672516 329.72274032 -261.9135664 326.63416812 -261.93041992 323.54541016 C-261.94959202 321.32390628 -261.96961303 319.1024096 -261.99041748 316.88092041 C-262.04442223 310.85576484 -262.08650522 304.83057819 -262.12642145 298.80531502 C-262.17028125 292.48664914 -262.22500839 286.16807736 -262.27853394 279.8494873 C-262.36700665 269.23059079 -262.44864925 258.61166352 -262.52514648 247.99267578 C-262.60364607 237.0981029 -262.68651403 226.20357737 -262.77514648 215.30908203 C-262.78059503 214.63919528 -262.78604357 213.96930853 -262.79165722 213.27912217 C-262.81358445 210.58538386 -262.83554253 207.8916458 -262.85754151 205.19790807 C-263.02667252 184.4827619 -263.19128237 163.76757694 -263.34355927 143.0522995 C-263.35949042 140.89173489 -263.37560992 138.73117167 -263.39194107 136.57061005 C-263.43449196 130.92221324 -263.47363769 125.27382176 -263.50532007 119.62535286 C-263.51484057 117.98147499 -263.52540713 116.33760279 -263.53709936 114.69373894 C-263.55236522 112.47189335 -263.56302276 110.25007603 -263.57223511 108.02819824 C-263.57884092 106.80530846 -263.58544674 105.58241867 -263.59225273 104.32247162 C-263.38140907 95.03349855 -260.35979477 88.64706439 -254.39477539 81.62939453 C-249.80061963 79.2324437 -245.56969792 79.09515898 -240.51977539 80.12939453 C-237.30449673 81.96585844 -235.00859483 84.41210924 -232.51977539 87.12939453 C-217.05367644 103.6725968 -194.69527849 117.55412006 -171.45776367 118.60083008 C-152.17221027 118.86786082 -136.24039838 107.25465221 -120.59155273 97.21411133 C-112.85914744 92.27903994 -104.97911895 87.60694166 -97.08227539 82.94189453 C-86.85635796 76.8990893 -76.66040211 70.81433876 -66.51977539 64.62939453 C-54.79347285 57.47929279 -42.99956173 50.44753711 -31.17602539 43.45947266 C-24.91094617 39.75431409 -18.66637119 36.02951877 -12.51977539 32.12939453 C-13.51186933 29.45837239 -14.51152737 27.14193152 -16.08227539 24.75439453 C-18.73091735 19.917744 -18.92600898 15.73621477 -17.45727539 10.50439453 C-14.38439277 2.1677778 -8.32862729 -0.02290385 0 0 Z " fill="#00A5EC" transform="translate(496.519775390625,254.87060546875)"/>
<path d="M0 0 C0.96164063 -0.03738281 1.92328125 -0.07476562 2.9140625 -0.11328125 C12.24389343 1.03451962 20.35789038 6.37335148 28.3125 11.0625 C29.99617676 12.04452393 29.99617676 12.04452393 31.71386719 13.04638672 C35.27385204 15.12448988 38.8251398 17.21716147 42.375 19.3125 C42.95235901 19.65293335 43.52971802 19.9933667 44.12457275 20.34411621 C51.49213633 24.68853748 58.84749441 29.05331655 66.19873047 33.42529297 C71.02337972 36.29189856 75.85505024 39.14656999 80.6875 42 C82.48438348 43.06118355 84.28125856 44.12238134 86.078125 45.18359375 C86.95533203 45.70163574 87.83253906 46.21967773 88.73632812 46.75341797 C91.3613917 48.30445942 93.98551935 49.85707241 96.609375 51.41015625 C104.50663424 56.0831381 112.4069753 60.75040362 120.328125 65.3828125 C122.78128719 66.81764477 125.23443865 68.25249534 127.6875 69.6875 C128.3021814 70.04707794 128.91686279 70.40665588 129.5501709 70.77713013 C139.16271291 76.40302765 148.72542911 82.10738379 158.26611328 87.85449219 C167.29261269 93.2833796 176.3873631 98.59062546 185.4921875 103.88671875 C194.81643 109.311648 204.11295172 114.78205382 213.375 120.3125 C214.0030957 120.68487793 214.63119141 121.05725586 215.27832031 121.44091797 C224.10552163 126.69742069 231.30929896 131.74470654 234.84375 141.75390625 C235.7069216 145.91109302 235.29581416 149.52012332 233.375 153.3125 C229.30404956 158.59053458 225.2762107 159.4454649 219.0625 160.6875 C197.05113757 165.67679554 173.97744463 177.4948668 161.02734375 196.5625 C152.98459496 209.94806773 153.08571278 224.55655134 153.1796875 239.68212891 C153.1835329 241.51001319 153.18645717 243.3378996 153.1885376 245.16578674 C153.19482536 249.07964688 153.20731006 252.99341912 153.22467041 256.90724564 C153.25186906 263.10265681 153.2635354 269.29803956 153.27294922 275.49349976 C153.29508245 288.64153856 153.33416298 301.78950799 153.375 314.9375 C153.41910106 329.14182337 153.46024013 343.34611824 153.48183632 357.55049646 C153.49176916 363.70287151 153.51143949 369.85511347 153.53869629 376.00743508 C153.55366539 379.83957888 153.5602566 383.67170469 153.5646286 387.50387383 C153.568357 389.27350771 153.57552749 391.0431384 153.58649445 392.81274223 C153.67069615 406.84679545 153.64656665 418.23197818 143.77734375 429.06640625 C137.70261191 434.79647245 130.62167302 437.50685626 122.3125 437.75 C112.36394462 437.35511496 104.73572775 433.99347902 97.87109375 426.71875 C90.26324033 417.08970567 90.94707683 405.19308154 91.00268555 393.57226562 C91.00025399 391.78720895 90.99653116 390.00215364 90.99162292 388.21710205 C90.98225464 383.39011988 90.9916081 378.56334197 91.00495505 373.73637581 C91.01632742 368.66258871 91.01215722 363.58881084 91.01020813 358.51501465 C91.00932633 349.98784074 91.02037624 341.46074649 91.03881836 332.93359375 C91.05992983 323.11689082 91.06350668 313.30030496 91.0572564 303.48358393 C91.05153014 293.99983858 91.0572501 284.51613389 91.06842995 275.03239441 C91.07303851 271.01693458 91.07396611 267.00149994 91.0718441 262.98603821 C91.06993866 258.2384345 91.07823537 253.49094722 91.0939045 248.74337006 C91.09809236 247.01581555 91.0990358 245.28824911 91.09621429 243.56069183 C91.04715083 208.09910492 100.29145915 179.71302756 125.12109375 153.70703125 C127.66894051 151.00022005 130.01730019 148.1858167 132.375 145.3125 C121.03464879 138.4764939 109.64210832 131.73059575 98.23779297 125.00195312 C93.61562886 122.27422196 88.9954139 119.5431943 84.375 116.8125 C83.46298828 116.27367187 82.55097656 115.73484375 81.61132812 115.1796875 C77.11365236 112.52240344 72.61662461 109.86403634 68.12109375 107.203125 C60.23027651 102.53416646 52.33647805 97.87075012 44.421875 93.2421875 C29.5751819 84.55878789 14.78013528 75.79954547 0.04980469 66.91943359 C-2.40679199 65.44359211 -4.86931325 63.97853364 -7.3359375 62.51953125 C-8.03025879 62.10767578 -8.72458008 61.69582031 -9.43994141 61.27148438 C-11.20330781 60.22672426 -12.96873204 59.18543937 -14.734375 58.14453125 C-22.53869526 53.19827963 -27.65143825 46.93277252 -30.0625 37.875 C-31.64952173 28.48512142 -29.85823077 20.23672024 -24.625 12.3125 C-18.28526849 4.26057823 -10.18488799 0.25529403 0 0 Z " fill="#00A5EC" transform="translate(30.625,135.6875)"/>
<path d="M0 0 C1.58167969 -0.05607422 1.58167969 -0.05607422 3.1953125 -0.11328125 C12.29489326 0.93964264 20.08569712 5.93878636 27.8125 10.5625 C28.84101074 11.1702124 29.86952148 11.7779248 30.92919922 12.40405273 C34.24831511 14.36711834 37.5616053 16.33979631 40.875 18.3125 C43.13888537 19.65308293 45.40321049 20.9929235 47.66796875 22.33203125 C52.23136386 25.03147683 56.79249866 27.7346561 61.3515625 30.44140625 C67.18810157 33.90626417 73.03020598 37.3615901 78.875 40.8125 C87.62642014 45.98071858 96.37098897 51.16044516 105.11376953 56.34326172 C112.69743925 60.83879108 120.28396058 65.32942665 127.875 69.8125 C137.19471174 75.31648293 146.50707932 80.83281341 155.81689453 86.35351562 C162.18519496 90.12907967 168.55822372 93.89640634 174.93725586 97.65380859 C178.48376784 99.74520712 182.02541035 101.84474539 185.56591797 103.94628906 C187.66555894 105.18858033 189.77144334 106.41948663 191.87890625 107.6484375 C201.58897005 113.41482351 208.97773895 119.07626512 212.45703125 130.16796875 C214.38529328 140.06157488 212.83323869 148.73291118 207.6953125 157.2734375 C202.98804325 163.6519266 194.59430019 167.85296845 186.875 169.3125 C175.90189277 170.06926602 167.29247291 165.82173261 158 160.375 C156.99678711 159.7972583 155.99357422 159.2195166 154.95996094 158.62426758 C146.99541605 154.01893988 139.09849526 149.3005615 131.2265625 144.5390625 C125.00682168 140.77987849 118.75394947 137.07689085 112.5 133.375 C111.92302368 133.03334808 111.34604736 132.69169617 110.75158691 132.33969116 C102.2454248 127.30296008 93.7350336 122.2733834 85.22314453 117.24633789 C77.35616532 112.5993548 69.49591442 107.94104545 61.63623047 103.28173828 C54.05256057 98.78620881 46.46598407 94.29566726 38.875 89.8125 C32.98598419 86.33371296 27.09780052 82.85352273 21.2109375 79.37109375 C20.64004395 79.03340973 20.06915039 78.69572571 19.48095703 78.34780884 C16.58724124 76.63552785 13.69503476 74.92077601 10.80566406 73.20117188 C5.54272993 70.07038526 0.27307015 66.95684703 -5.0390625 63.91015625 C-5.94575684 63.38365479 -6.85245117 62.85715332 -7.78662109 62.31469727 C-9.44162808 61.35419378 -11.10290386 60.40436079 -12.77197266 59.46850586 C-21.08150112 54.60847153 -26.53019906 48.3784337 -29.46484375 39.16796875 C-31.51409817 30.30403395 -30.26705775 22.38828716 -26.125 14.3125 C-21.76796057 7.68663952 -15.80774703 3.1479214 -8.23828125 0.703125 C-5.47386111 0.19214161 -2.81122912 0.06435344 0 0 Z " fill="#8BDCFE" transform="translate(237.125,-0.3125)"/>
<path d="M0 0 C5.61509758 5.81064825 8.40844167 13.54258937 8.6953125 21.5625 C8.3204288 29.7065252 5.50836982 37.2478022 -0.36206055 43.03417969 C-5.49249966 47.64488791 -10.88555659 51.15477974 -16.8671875 54.5625 C-18.83476084 55.70421097 -20.80220526 56.84614412 -22.76953125 57.98828125 C-23.76581543 58.56271973 -24.76209961 59.1371582 -25.78857422 59.72900391 C-30.35480483 62.37030675 -34.89157291 65.06077776 -39.4296875 67.75 C-41.25642547 68.82957084 -43.08325039 69.90899455 -44.91015625 70.98828125 C-51.93660869 75.14241351 -58.9580343 79.30502584 -65.97958374 83.46743774 C-74.44697034 88.48683168 -82.91891492 93.49842444 -91.39453125 98.50390625 C-98.68117422 102.80820769 -105.9622485 107.12187202 -113.2421875 111.4375 C-121.40537942 116.27673003 -129.57103361 121.11172504 -137.7421875 125.9375 C-145.4670083 130.50044386 -153.18967384 135.06701503 -160.90908813 139.63909912 C-162.65936825 140.67546864 -164.41011247 141.71105085 -166.16088867 142.74658203 C-170.98176326 145.60104266 -175.79866641 148.45941455 -180.578125 151.3828125 C-181.26656494 151.80272461 -181.95500488 152.22263672 -182.66430664 152.65527344 C-184.38754246 153.71017952 -186.10613768 154.77265674 -187.82421875 155.8359375 C-195.98435898 160.31472933 -205.39316198 160.97414821 -214.4375 158.78515625 C-222.20072001 155.63388402 -228.70123068 149.74230656 -232.7421875 142.4375 C-235.88476264 134.38749775 -236.127245 125.23469803 -233.1796875 117.0625 C-228.12647275 106.79787706 -220.06828485 101.79283859 -210.3671875 96.375 C-209.06606985 95.63323981 -207.76595432 94.88971931 -206.46679688 94.14453125 C-204.48097678 93.00574821 -202.49463134 91.86803853 -200.50506592 90.73580933 C-194.3568063 87.23598249 -188.29406475 83.60124096 -182.2421875 79.9375 C-172.7426475 74.20917622 -163.18516878 68.5871681 -153.60391235 62.99731445 C-144.3178343 57.57592035 -135.10609913 52.04229156 -125.9296875 46.4375 C-118.2698215 41.75911232 -110.59493722 37.14281736 -102.73388672 32.80859375 C-96.75536461 29.49327414 -90.90842975 25.967429 -85.0546875 22.4375 C-76.16345296 17.08154078 -67.25833378 11.75120116 -58.31356812 6.48510742 C-57.07917041 5.75771842 -55.84559735 5.02892774 -54.61294556 4.29858398 C-36.05133771 -6.69435861 -18.57576058 -16.65987496 0 0 Z " fill="#8BDCFE" transform="translate(557.7421875,410.5625)"/>
<path d="M0 0 C6.33400513 5.1070538 10.67836119 11.26995672 11.7765615 19.5402267 C12.26371206 26.0954037 12.17598181 32.66721669 12.1472168 39.23608398 C12.15563863 41.45466978 12.16616757 43.67324843 12.17863464 45.89181519 C12.20561417 51.89397192 12.20099989 57.89571181 12.18893409 63.89790225 C12.18178644 68.91771358 12.19031318 73.93744863 12.19883949 78.95725399 C12.21990779 91.4796288 12.21081136 104.00180412 12.18736318 116.52415318 C12.16911732 126.70088734 12.18001658 136.87725855 12.21166992 147.05395508 C12.24850951 158.8985654 12.26477495 170.74299317 12.25225765 182.58767468 C12.24578325 188.84783885 12.24771274 195.10769784 12.27158165 201.36782646 C12.29288965 207.25569826 12.28478208 213.14282578 12.25448799 219.03065109 C12.24818011 221.1848289 12.2519739 223.33906496 12.26689911 225.4932003 C12.41489348 248.74705501 12.41489348 248.74705501 3.44364452 258.57558346 C-3.47481309 265.23868274 -11.56948779 267.70834271 -21.0546875 267.55078125 C-29.04372246 266.86600683 -35.80473739 263.98945574 -41.515625 258.33984375 C-48.00782557 250.41935905 -49.82000754 243.12681079 -49.78305054 233.10614014 C-49.78758165 232.19728821 -49.79211276 231.28843628 -49.79678118 230.35204339 C-49.80940469 227.31765118 -49.80780612 224.28343894 -49.80615234 221.24902344 C-49.81213889 219.06881989 -49.81894473 216.88861845 -49.82650757 214.7084198 C-49.84416251 208.79298378 -49.84886276 202.87760563 -49.85013914 196.96214581 C-49.85156166 193.26390419 -49.85583319 189.56567724 -49.86113358 185.86743927 C-49.8805881 172.29159707 -49.88766433 158.71580043 -49.88598271 145.1399453 C-49.88511982 133.78530539 -49.90787889 122.43083754 -49.9377178 111.07623935 C-49.96389548 100.74564228 -49.97459712 90.41510382 -49.97331965 80.08447385 C-49.97281043 73.91878776 -49.97847166 67.7532613 -49.99967575 61.58760834 C-50.01908292 55.78613761 -50.01916539 49.98497838 -50.00464249 44.18349648 C-50.00255634 42.0595307 -50.0072436 39.9355453 -50.0193634 37.81161308 C-50.15584818 12.22737037 -50.15584818 12.22737037 -41.21484375 2.8359375 C-29.26073649 -7.68917303 -13.33059791 -8.79736663 0 0 Z " fill="#8BDCFE" transform="translate(60.515625,251.66015625)"/>
<path d="M0 0 C2 1 2 1 2 1 Z " fill="#01001A" transform="translate(1772,186)"/>
</svg>
